<?xml version="1.0" standalone="no"?>
<!DOCTYPE svg PUBLIC "-//W3C//DTD SVG 1.1//EN" "http://www.w3.org/Graphics/SVG/1.1/DTD/svg11.dtd" >
<svg>
    <metadata>
        Created by FontForge 20120731 at Fri Feb 22 20:04:57 2013
        By Stefan Warting
        Copyright (c) Laurenz Brunner. www.lineto.com, 2004. All rights reserved.
    </metadata>
    <defs>
        <font id="Akkurat-Bold" horiz-adv-x="570" >
            <font-face
                    font-family="Akkurat-Bold"
                    font-weight="400"
                    font-stretch="normal"
                    units-per-em="1000"
                    panose-1="2 0 5 3 3 0 0 2 0 4"
                    ascent="800"
                    descent="-200"
                    x-height="520"
                    cap-height="709"
                    bbox="-30 -293 1147 983"
                    underline-thickness="45"
                    underline-position="-71"
                    unicode-range="U+0020-FB02"
            />
            <missing-glyph horiz-adv-x="588"
                           d="M425 74v549h-262v-549h262zM88 698h412v-698h-412v698z" />
            <glyph glyph-name="fi" unicode="fi" horiz-adv-x="659"
                   d="M379 623q-20 4 -38.5 6t-43.5 2q-34 0 -51 -17.5t-17 -45.5v-48h139v-103h-139v-417h-125v417h-88v103h88v50q0 72 46.5 118t130.5 46q27 0 48 -2.5t50 -8.5v-100zM453 0v520h127v-520h-127zM449 590v131h134v-131h-134z" />
            <glyph glyph-name="fl" unicode="fl" horiz-adv-x="673"
                   d="M379 623q-20 4 -38.5 6t-43.5 2q-34 0 -51 -17.5t-17 -45.5v-48h139v-103h-139v-417h-125v417h-88v103h88v50q0 72 46.5 118t130.5 46q27 0 48 -2.5t50 -8.5v-100zM643 1q-19 -4 -27.5 -5.5t-27.5 -1.5q-64 0 -103 33t-39 107v589h126v-568q0 -23 9 -36.5t41 -13.5
q8 0 12 0.5t9 0.5v-105z" />
            <glyph glyph-name=".notdef" horiz-adv-x="588"
                   d="M425 74v549h-262v-549h262zM88 698h412v-698h-412v698z" />
            <glyph glyph-name=".null" horiz-adv-x="0"
            />
            <glyph glyph-name="nonmarkingreturn" horiz-adv-x="209"
            />
            <glyph glyph-name="space" unicode=" " horiz-adv-x="209"
            />
            <glyph glyph-name="space" unicode="&#xa0;" horiz-adv-x="209"
            />
            <glyph glyph-name="exclam" unicode="!" horiz-adv-x="332"
                   d="M118 0v133h132v-133h-132zM221 212h-75l-28 275v222h131v-222z" />
            <glyph glyph-name="quotedbl" unicode="&#x22;" horiz-adv-x="525"
                   d="M190 392h-83l-25 171v147h133v-147zM418 392h-83l-25 171v147h133v-147z" />
            <glyph glyph-name="numbersign" unicode="#" horiz-adv-x="758"
                   d="M322 413l-18 -131h138l18 131h-138zM564 413l-17 -131h121v-98h-136l-26 -184h-105l26 184h-138l-26 -184h-105l26 184h-121v98h136l18 131h-122v99h136l27 183h104l-26 -183h138l27 183h104l-26 -183h121v-99h-136z" />
            <glyph glyph-name="dollar" unicode="$"
                   d="M432 212q0 38 -25 56.5t-57 24.5l-17 3v-186q46 8 71 33q12 12 20 28t8 41zM260 601q-20 -3 -39.5 -11t-34.5 -22q-12 -11 -19.5 -27t-7.5 -36q0 -35 19.5 -52.5t51.5 -22.5q8 -2 15 -3t15 -2v176zM553 217q0 -48 -16 -81t-41 -59q-31 -32 -72.5 -50t-90.5 -23v-91h-73
v90q-48 4 -90.5 20.5t-79.5 50.5q-30 27 -50 66.5t-21 87.5h123q1 -26 11 -47.5t26 -36.5q17 -17 37.5 -25t43.5 -10v198q-12 2 -24.5 3.5t-24.5 3.5q-81 13 -127.5 62t-46.5 126q0 40 17 73t44 59q29 29 70 48t92 24v93h73v-95q42 -5 78.5 -20.5t64.5 -41.5
q30 -28 48.5 -64.5t20.5 -78.5h-123q-1 18 -10 36.5t-21 31.5q-11 11 -26 18.5t-32 12.5v-183q8 -2 17 -2.5t17 -2.5q38 -6 72 -21t59.5 -39t40 -57.5t14.5 -75.5z" />
            <glyph glyph-name="percent" unicode="%" horiz-adv-x="904"
                   d="M290 527q0 20 -2.5 39t-10.5 34t-22.5 24t-37.5 9t-37.5 -9t-22.5 -24t-10.5 -34t-2.5 -39t2.5 -39t10.5 -34t22.5 -24t37.5 -9t37.5 9t22.5 24t10.5 34t2.5 39zM755 182q0 20 -2.5 39t-10.5 34t-22.5 24t-37.5 9t-37.5 -9t-22.5 -24t-10.5 -34t-2.5 -39t2.5 -39
t10.5 -34t22.5 -24t37.5 -9t37.5 9t22.5 24t10.5 34t2.5 39zM389 527q0 -33 -6.5 -63.5t-24.5 -56.5q-23 -34 -57.5 -53t-83.5 -19t-83.5 19t-57.5 53q-18 26 -24.5 56.5t-6.5 63.5t6.5 63.5t24.5 56.5q23 34 57.5 53t83.5 19t83.5 -19t57.5 -53q18 -26 24.5 -56.5
t6.5 -63.5zM236 -20l-74 56l505 687l76 -53zM854 182q0 -33 -6.5 -63.5t-24.5 -56.5q-23 -34 -57.5 -53t-83.5 -19t-83.5 19t-57.5 53q-18 26 -24.5 56.5t-6.5 63.5t6.5 63.5t24.5 56.5q23 34 57.5 53t83.5 19t83.5 -19t57.5 -53q18 -26 24.5 -56.5t6.5 -63.5z" />
            <glyph glyph-name="ampersand" unicode="&#x26;" horiz-adv-x="742"
                   d="M427 134q-42 45 -81 89.5t-81 89.5q-18 -10 -33 -20.5t-26.5 -23.5t-18 -29t-6.5 -39q0 -27 10.5 -48t28 -35t40.5 -21t48 -7q32 0 64 9t55 35zM389 544q0 37 -22.5 57t-56.5 20q-31 0 -55 -18.5t-24 -55.5q0 -17 6.5 -32t16 -28.5t21.5 -25.5l23 -23q17 9 33 18.5
t29 21.5t21 28t8 38zM552 -1l-50 56q-43 -38 -94.5 -56t-106.5 -18q-47 0 -89.5 15t-75 42.5t-51.5 67.5t-19 90q0 66 34.5 113t91.5 82q-17 18 -31 35.5t-24 35.5t-15.5 38t-5.5 45q0 42 15.5 75t41.5 56.5t61.5 35.5t75.5 12q39 0 74.5 -11.5t62.5 -34t43 -55t16 -74.5
q0 -34 -10 -62t-28 -50.5t-42.5 -41.5t-53.5 -36l123 -134q9 17 12.5 39.5t5.5 47.5q2 24 2 47v40h183v-99h-82q-2 -42 -11 -83t-32 -76q34 -36 66 -71.5t65 -70.5h-152z" />
            <glyph glyph-name="quotesingle" unicode="'" horiz-adv-x="277"
                   d="M180 392h-83l-25 171v147h133v-147z" />
            <glyph glyph-name="parenleft" unicode="(" horiz-adv-x="328"
                   d="M247 -168q-91 104 -136.5 222.5t-45.5 262.5t45.5 262.5t136.5 222.5l71 -53q-38 -51 -66 -99.5t-46.5 -99.5t-27.5 -107.5t-9 -125.5t9 -125.5t27.5 -107.5t46.5 -99.5t66 -99.5z" />
            <glyph glyph-name="parenright" unicode=")" horiz-adv-x="328"
                   d="M263 317q0 -144 -45.5 -262.5t-136.5 -222.5l-71 53q38 51 66 99.5t46.5 99.5t27.5 107.5t9 125.5t-9 125.5t-27.5 107.5t-46.5 99.5t-66 99.5l71 53q91 -104 136.5 -222.5t45.5 -262.5z" />
            <glyph glyph-name="asterisk" unicode="*" horiz-adv-x="525"
                   d="M334 466l100 -125l-87 -65l-84 139l-85 -140l-87 65l100 126l-151 40l33 106l145 -60l-10 161l108 -1l-11 -161l146 61l34 -106z" />
            <glyph glyph-name="plus" unicode="+" horiz-adv-x="679"
                   d="M396 255v-250h-113v250h-228v107h228v234h113v-234h228v-107h-228z" />
            <glyph glyph-name="comma" unicode="," horiz-adv-x="292"
                   d="M222 12q0 -65 -22.5 -109.5t-88.5 -72.5l-35 58q22 10 35.5 21t21 24.5t10 30t2.5 36.5h-75v156h152v-144z" />
            <glyph glyph-name="hyphen" unicode="-" horiz-adv-x="463"
                   d="M60 252v112h343v-112h-343z" />
            <glyph glyph-name="period" unicode="." horiz-adv-x="293"
                   d="M70 0v156h152v-156h-152z" />
            <glyph glyph-name="slash" unicode="/" horiz-adv-x="389"
                   d="M92 -13h-92l307 735h92z" />
            <glyph glyph-name="zero" unicode="0"
                   d="M403 348q0 34 -0.5 76.5t-10.5 80t-34.5 63t-72.5 25.5t-72.5 -25.5t-34.5 -63t-10.5 -80t-0.5 -76.5t0.5 -76.5t10.5 -80t34.5 -63t72.5 -25.5t72.5 25.5t34.5 63t10.5 80t0.5 76.5zM530 348q0 -43 -3 -85t-11.5 -81t-25 -73t-43.5 -60t-66 -44t-96 -18t-96 18t-66 44
t-43.5 60t-25 73t-11.5 81t-3 85t3 85t11.5 81t25 73t43.5 60t66 44t96 18t96 -18t66 -44t43.5 -60t25 -73t11.5 -81t3 -85z" />
            <glyph glyph-name="one" unicode="1"
                   d="M269 0v547l-153 -111v136l171 123h107v-695h-125z" />
            <glyph glyph-name="two" unicode="2"
                   d="M62 0v100l271 323q18 21 27 44.5t9 44.5q0 37 -22.5 62t-65.5 25q-45 0 -69 -29t-24 -71h-128q0 46 15 84.5t43 66.5t69 43.5t95 15.5q45 0 84 -13.5t68 -39t45.5 -61.5t16.5 -82t-23.5 -90.5t-52.5 -79.5l-192 -230h278v-113h-444z" />
            <glyph glyph-name="three" unicode="3"
                   d="M516 199q0 -52 -18.5 -91.5t-51 -66.5t-75.5 -40.5t-92 -13.5q-48 0 -90.5 15t-74 43t-50.5 67.5t-21 88.5h125q4 -51 35 -77.5t77 -26.5q47 0 78.5 27t31.5 77q0 27 -10 47t-26.5 32.5t-39 19t-46.5 6.5h-52v109h52q51 0 79 22t28 71q0 38 -26.5 64.5t-68.5 26.5
q-47 0 -76.5 -23t-30.5 -71h-126q1 49 19.5 87t50 64t73.5 39.5t90 13.5q47 0 87.5 -14t70.5 -40t47 -62.5t17 -81.5q0 -48 -26 -90t-74 -59q27 -7 48 -23.5t36 -38.5t22.5 -48t7.5 -53z" />
            <glyph glyph-name="four" unicode="4"
                   d="M462 140v-140h-125v140h-310v118l255 437h136l-259 -442h178v163h125v-163h88v-113h-88z" />
            <glyph glyph-name="five" unicode="5"
                   d="M533 236q0 -55 -16 -101t-47 -79t-76 -51.5t-103 -18.5q-52 0 -95 15.5t-74.5 44t-50 68.5t-21.5 89h125q2 -52 34.5 -79t82.5 -27q32 0 53.5 10.5t35 29t19.5 43.5t6 53q0 55 -27 90.5t-87 35.5q-31 0 -59 -15t-45 -41h-123l15 392h422v-112h-314l-8 -159q24 23 57.5 34
t80.5 11q53 0 93 -18t67 -49t41 -73.5t14 -92.5z" />
            <glyph glyph-name="six" unicode="6"
                   d="M408 234q0 54 -28 92t-86 38q-51 0 -79.5 -37.5t-28.5 -92.5q0 -57 27 -96t83 -39q57 0 84.5 37t27.5 98zM535 229q0 -51 -15 -95t-45 -77t-75 -51.5t-104 -18.5q-49 0 -89 16.5t-70 46t-49 69.5t-27 87q-6 34 -8.5 65.5t-2.5 64.5q0 38 2 79.5t10 81.5t23 77t42 65
q29 30 68 50t102 20q54 0 93 -15.5t66 -41.5q29 -28 44 -62.5t15 -65.5h-126q-3 32 -24 53q-24 25 -74 25q-25 0 -40.5 -8t-28.5 -20q-28 -26 -38 -69.5t-10 -89.5q12 14 28 23.5t34 15.5t36 9t34 3q56 0 99 -17t72 -48.5t43.5 -75t14.5 -96.5z" />
            <glyph glyph-name="seven" unicode="7"
                   d="M255 0h-135l272 583h-345v112h479v-100z" />
            <glyph glyph-name="eight" unicode="8"
                   d="M399 203q0 43 -29 73t-85 30t-85 -30t-29 -73q0 -48 31.5 -77t82.5 -29t82.5 29t31.5 77zM385 509q0 38 -25 64t-75 26q-51 0 -75.5 -26t-24.5 -64t25 -65.5t75 -27.5t75 27.5t25 65.5zM525 195q0 -51 -20 -90t-53 -65.5t-76.5 -40t-90.5 -13.5t-90.5 13.5t-76.5 40
t-53 65.5t-20 90q0 52 25.5 97.5t75.5 68.5q-19 11 -35 27t-27.5 36t-18 42.5t-6.5 44.5q0 49 18.5 86t49.5 62t72 37.5t86 12.5t86 -12.5t72 -37.5t49.5 -62t18.5 -86q0 -22 -6.5 -44.5t-18 -42.5t-27.5 -36t-35 -27q50 -23 75.5 -68.5t25.5 -97.5z" />
            <glyph glyph-name="nine" unicode="9"
                   d="M386 462q0 57 -27 96t-83 39q-57 0 -84.5 -37t-27.5 -98q0 -54 28 -92t86 -38q51 0 79.5 37.5t28.5 92.5zM522 360q0 -38 -2 -79.5t-10 -81.5t-23 -76.5t-42 -65.5q-29 -30 -68 -50t-102 -20q-54 0 -93 15.5t-66 41.5q-29 28 -44 62.5t-15 65.5h126q3 -32 24 -53
q24 -25 74 -25q25 0 40.5 8t28.5 20q14 13 23.5 31t15 39t7.5 43.5t2 45.5q-12 -14 -28 -23.5t-34 -15.5t-36 -9t-34 -3q-56 0 -99 17t-72 48.5t-43.5 75t-14.5 96.5q0 51 15 95t45 77t75 51.5t104 18.5q50 0 89.5 -16.5t69.5 -46t49 -69.5t27 -87q6 -34 8.5 -65.5
t2.5 -64.5z" />
            <glyph glyph-name="colon" unicode=":" horiz-adv-x="321"
                   d="M94 0v151h151v-151h-151zM94 369v151h151v-151h-151z" />
            <glyph glyph-name="semicolon" unicode=";" horiz-adv-x="321"
                   d="M245 12q0 -33 -5 -60t-17 -49.5t-33.5 -40t-54.5 -31.5l-35 58q42 20 55.5 45.5t13.5 65.5h-75v151h151v-139zM94 369v151h151v-151h-151z" />
            <glyph glyph-name="less" unicode="&#x3c;" horiz-adv-x="466"
                   d="M421 575l-254 -253l254 -254l-69 -68l-322 323l321 322z" />
            <glyph glyph-name="equal" unicode="=" horiz-adv-x="690"
                   d="M90 129v99h510v-99h-510zM90 328v98h510v-98h-510z" />
            <glyph glyph-name="greater" unicode="&#x3e;" horiz-adv-x="466"
                   d="M115 645l321 -322l-322 -323l-69 68l254 254l-254 253z" />
            <glyph glyph-name="question" unicode="?" horiz-adv-x="522"
                   d="M188 0v140h139v-140h-139zM494 529q0 -53 -22 -91.5t-57 -67.5q-19 -16 -36.5 -29.5t-30.5 -28.5t-20.5 -34.5t-7.5 -47.5v-28h-124v48.5t5 48.5q7 33 20.5 55.5t31 40t36 31.5t36.5 30q14 13 26.5 30.5t12.5 41.5q0 33 -24.5 58.5t-72.5 25.5t-77 -25.5t-29 -74.5h-129
q0 53 19 92.5t51.5 66.5t76 40.5t93.5 13.5q49 0 90 -15t70 -41.5t45.5 -62.5t16.5 -77z" />
            <glyph glyph-name="at" unicode="@" horiz-adv-x="927"
                   d="M546 331q0 42 -16.5 70.5t-58.5 28.5q-22 0 -37.5 -10.5t-25.5 -27.5t-14.5 -38t-4.5 -43q0 -20 4 -38.5t12.5 -32.5t22 -22.5t32.5 -8.5q24 0 40.5 10t26.5 27t14.5 39t4.5 46zM874 384q0 -43 -12 -91t-38 -87.5t-66.5 -65.5t-97.5 -26q-33 0 -59.5 14t-41.5 55
q-20 -35 -51 -51t-67 -16q-42 0 -73 16.5t-50.5 43.5t-29 62t-9.5 73q0 41 11 79t32.5 66.5t54 45.5t75.5 17q31 0 61 -16t40 -48l14 53h92l-18 -254q-2 -22 5 -34.5t22 -12.5t28.5 8t24.5 20t19.5 27.5t13.5 30.5q7 21 10 43.5t3 45.5q0 60 -20 106t-56 76.5t-86.5 46
t-110.5 15.5q-73 0 -131.5 -22.5t-99 -63.5t-62 -98.5t-21.5 -126.5q0 -62 20 -116t57.5 -93.5t90.5 -62t118 -22.5q58 0 118 7t129 31v-96q-59 -22 -119 -31t-129 -9q-91 0 -164 30.5t-124.5 84t-79 126.5t-27.5 159q0 90 31 163.5t87 126t133.5 81t171.5 28.5
q78 0 147.5 -21.5t121.5 -63.5t82 -105.5t30 -147.5z" />
            <glyph glyph-name="A" unicode="A" horiz-adv-x="639"
                   d="M317 551l-101 -299h202zM504 0l-46 136h-282l-46 -136h-130l249 709h141l249 -709h-135z" />
            <glyph glyph-name="B" unicode="B" horiz-adv-x="664"
                   d="M495 209q0 57 -35 80t-86 23h-163v-197h159q23 0 45 4.5t40 15.5t29 29t11 45zM480 508q0 26 -9 43t-24 27.5t-35 15t-42 4.5h-159v-178h162q22 0 41.5 4.5t34 14.5t23 27t8.5 42zM626 206q0 -48 -17 -89t-55 -70q-42 -32 -90 -40t-99 -8h-282v710h282q43 0 85.5 -8
t78.5 -31q39 -26 60.5 -67t21.5 -87q0 -22 -5 -44t-16 -42.5t-27 -37t-39 -26.5q51 -23 76.5 -66.5t25.5 -93.5z" />
            <glyph glyph-name="C" unicode="C" horiz-adv-x="628"
                   d="M600 226q-5 -42 -21 -82.5t-47 -72.5q-40 -41 -93 -62.5t-110 -21.5t-108.5 19t-92.5 60q-29 29 -46.5 61t-26.5 68t-12 76t-3 83q0 44 3 83.5t12 75.5t26.5 68t46.5 61q41 41 92.5 60.5t108.5 19.5t110 -20.5t93 -61.5q31 -32 47 -72t21 -82h-132q-2 23 -10 40.5
t-22 34.5q-17 22 -45.5 33t-61.5 11q-31 0 -59.5 -12t-49.5 -35q-18 -19 -28 -44t-14.5 -52.5t-5.5 -55.5t-1 -52t1 -52t5.5 -55.5t14.5 -52.5t28 -44q21 -23 49.5 -35t59.5 -12q33 0 61.5 11.5t45.5 33.5q28 34 32 78h132z" />
            <glyph glyph-name="D" unicode="D" horiz-adv-x="684"
                   d="M510 355q0 24 -1 51t-6 53.5t-15 50.5t-29 43q-18 18 -43.5 29t-56.5 11h-147v-477h147q31 0 56.5 11t43.5 29q19 19 29 43t15 50.5t6 54t1 51.5zM641 355q0 -37 -2.5 -74.5t-11.5 -73.5t-25.5 -69.5t-43.5 -61.5q-35 -37 -86.5 -56.5t-112.5 -19.5h-276v709h276
q61 0 112.5 -19.5t86.5 -56.5q27 -28 43.5 -61t25.5 -69t11.5 -73.5t2.5 -74.5z" />
            <glyph glyph-name="E" unicode="E" horiz-adv-x="628"
                   d="M83 0v709h505v-117h-376v-165h331v-116h-331v-194h376v-117h-505z" />
            <glyph glyph-name="F" unicode="F" horiz-adv-x="588"
                   d="M212 592v-190h322v-117h-322v-285h-129v709h490v-117h-361z" />
            <glyph glyph-name="G" unicode="G" horiz-adv-x="684"
                   d="M538 0l-15 78q-8 -15 -24 -31t-39.5 -29.5t-52.5 -22t-62 -8.5q-62 -1 -115.5 16.5t-95.5 62.5q-55 58 -73.5 129.5t-18.5 158.5q0 44 3.5 83t13.5 74t28 67t47 61q41 41 97.5 62t113.5 21q66 0 120 -22t90 -59q26 -27 44 -61.5t21 -81.5h-132q-2 21 -11 36t-20 29
q-37 43 -113 43q-31 0 -63 -12.5t-53 -35.5q-18 -19 -29 -44t-17 -52.5t-7.5 -55.5t-1.5 -52t2 -52.5t8 -56.5t17 -53.5t29 -44.5q21 -23 52.5 -34t62.5 -11q35 0 61.5 11t44.5 30q29 30 37.5 63.5t8.5 74.5h-169v107h294v-388h-83z" />
            <glyph glyph-name="H" unicode="H" horiz-adv-x="715"
                   d="M503 0v309h-291v-309h-129v709h129v-277h291v277h129v-709h-129z" />
            <glyph glyph-name="I" unicode="I" horiz-adv-x="297"
                   d="M83 0v709h131v-709h-131z" />
            <glyph glyph-name="J" unicode="J" horiz-adv-x="491"
                   d="M428 207q0 -101 -56 -161t-159 -60q-51 0 -88 15.5t-63 42.5q-62 63 -62 178h125q0 -26 4.5 -51.5t21.5 -43.5q11 -11 26.5 -18.5t35.5 -7.5q44 0 65 26t21 70v512h129v-502z" />
            <glyph glyph-name="K" unicode="K" horiz-adv-x="678"
                   d="M526 0l-192 335l-122 -143v-192h-129v709h129v-327l283 327h157l-228 -268l254 -441h-152z" />
            <glyph glyph-name="L" unicode="L" horiz-adv-x="550"
                   d="M83 0v709h129v-587h329v-122h-458z" />
            <glyph glyph-name="M" unicode="M" horiz-adv-x="878"
                   d="M670 0v506l-184 -496h-95l-183 502v-512h-125v709h174l186 -505l187 505h165v-709h-125z" />
            <glyph glyph-name="N" unicode="N" horiz-adv-x="733"
                   d="M517 0l-307 487v-487h-127v709h137l303 -480v480h127v-709h-133z" />
            <glyph glyph-name="O" unicode="O" horiz-adv-x="672"
                   d="M499 354q0 24 -1 52t-6 55.5t-15.5 52.5t-28.5 44q-21 23 -51 35t-61 12t-61 -12t-51 -35q-18 -19 -28.5 -44t-15.5 -52.5t-6 -55.5t-1 -52t1 -52t6 -55t15.5 -52t28.5 -44q21 -23 51 -35t61 -12t61 12t51 35q18 19 28.5 44t15.5 52t6 55t1 52zM630 354q0 -43 -3 -82.5
t-13 -75.5t-27.5 -68t-46.5 -61q-41 -41 -94 -60.5t-110 -19.5t-110 19.5t-94 60.5q-29 29 -46.5 61t-27.5 68t-13 75.5t-3 82.5q0 44 3 83.5t13 75.5t27.5 68t46.5 61q41 41 94 60.5t110 19.5t110 -19.5t94 -60.5q29 -29 46.5 -61t27.5 -68t13 -75.5t3 -83.5z" />
            <glyph glyph-name="P" unicode="P" horiz-adv-x="624"
                   d="M481 481q0 51 -30 83t-95 32h-145v-229h145q65 0 95 31.5t30 82.5zM611 482q0 -51 -16 -93t-47.5 -72t-78.5 -46.5t-108 -16.5h-150v-254h-128v709h278q61 0 108 -16.5t78.5 -46t47.5 -71.5t16 -93z" />
            <glyph glyph-name="Q" unicode="Q" horiz-adv-x="672"
                   d="M499 354q0 24 -1 52t-6 55.5t-15.5 52.5t-28.5 44q-21 23 -51 35t-61 12t-61 -12t-51 -35q-18 -19 -28.5 -44t-15.5 -52.5t-6 -55.5t-1 -52t1 -52t6 -55t15.5 -52t28.5 -44q21 -23 51 -35t61 -12q25 0 46 7l-76 95l78 61l78 -99q13 20 20.5 43t11 47.5t4.5 49t1 46.5z
M630 354q0 -43 -3 -82.5t-13 -75t-27 -67.5t-46 -61l62 -78l-77 -60l-66 82q-57 -25 -124 -25q-57 0 -110 19.5t-94 60.5q-29 29 -46.5 61t-27.5 68t-13 75.5t-3 82.5q0 44 3 83.5t13 75.5t27.5 68t46.5 61q41 41 94 60.5t110 19.5t110 -19.5t94 -60.5q29 -29 46.5 -61
t27.5 -68t13 -75.5t3 -83.5z" />
            <glyph glyph-name="R" unicode="R" horiz-adv-x="659"
                   d="M499 489q0 21 -8 40.5t-23 34.5t-37 23.5t-49 8.5h-170v-212h172q55 0 85 27t30 78zM488 0l-118 268h-157v-268h-130v709h299q63 0 109.5 -18.5t77 -49t45 -70t14.5 -82.5q0 -72 -35.5 -124.5t-94.5 -74.5l130 -290h-140z" />
            <glyph glyph-name="S" unicode="S" horiz-adv-x="632"
                   d="M599 211q0 -50 -16.5 -86t-42.5 -62q-41 -41 -99.5 -58.5t-124.5 -17.5q-57 0 -112.5 16.5t-99.5 56.5q-32 29 -53 71.5t-21 93.5h132q0 -26 10.5 -48.5t26.5 -38.5q23 -23 55.5 -30.5t63.5 -7.5q37 0 70 8.5t53 29.5q12 13 20 27.5t8 40.5q0 39 -25.5 58.5t-58.5 25.5
q-36 7 -79 10t-78 9q-37 6 -69.5 21t-57 39.5t-39 59t-14.5 78.5q0 42 17 77t45 63q35 35 90 55t118 20q57 0 109.5 -17.5t88.5 -51.5q32 -30 51.5 -68t20.5 -83h-132q-1 19 -9.5 37.5t-21.5 32.5q-17 18 -48 28t-60 10q-30 0 -61.5 -8t-53.5 -31q-11 -12 -17.5 -26
t-6.5 -34q0 -35 20 -53.5t52 -23.5q34 -5 76.5 -9t77.5 -9q40 -6 75.5 -21.5t62 -41t42 -61.5t15.5 -81z" />
            <glyph glyph-name="T" unicode="T" horiz-adv-x="561"
                   d="M345 589v-589h-129v589h-210v120h549v-120h-210z" />
            <glyph glyph-name="U" unicode="U" horiz-adv-x="682"
                   d="M619 272q0 -63 -17.5 -115.5t-52.5 -90t-87 -58.5t-121 -21t-121 21t-87 58.5t-52.5 90t-17.5 115.5v437h129v-435q0 -76 36 -123t113 -47t113 47t36 123v435h129v-437z" />
            <glyph glyph-name="V" unicode="V" horiz-adv-x="610"
                   d="M377 0h-142l-235 709h137l172 -541l171 541h130z" />
            <glyph glyph-name="W" unicode="W" horiz-adv-x="872"
                   d="M714 0h-129l-148 489l-148 -489h-129l-143 709h123l99 -493l146 482h108l143 -482l101 493h118z" />
            <glyph glyph-name="X" unicode="X" horiz-adv-x="603"
                   d="M459 0l-159 258l-159 -258h-139l223 361l-221 348h141l159 -248l154 248h140l-218 -349l221 -360h-142z" />
            <glyph glyph-name="Y" unicode="Y" horiz-adv-x="624"
                   d="M376 272v-272h-130v272l-246 437h140l175 -306l175 306h134z" />
            <glyph glyph-name="Z" unicode="Z" horiz-adv-x="615"
                   d="M29 0v127l391 465h-385v117h544v-127l-388 -465h393v-117h-555z" />
            <glyph glyph-name="bracketleft" unicode="[" horiz-adv-x="363"
                   d="M104 -148v928h234v-85h-140v-758h140v-85h-234z" />
            <glyph glyph-name="backslash" unicode="\" horiz-adv-x="389"
                   d="M297 -13l-307 735h92l307 -735h-92z" />
            <glyph glyph-name="bracketright" unicode="]" horiz-adv-x="363"
                   d="M25 -148v85h140v758h-140v85h234v-928h-234z" />
            <glyph glyph-name="asciicircum" unicode="^" horiz-adv-x="538"
                   d="M350 404l-83 163l-84 -163h-133l170 318h99l169 -318h-138z" />
            <glyph glyph-name="underscore" unicode="_" horiz-adv-x="587"
                   d="M24 -90v88h539v-88h-539z" />
            <glyph glyph-name="grave" unicode="`" horiz-adv-x="255"
                   d="M203 566l-200 112l56 91l184 -138z" />
            <glyph glyph-name="a" unicode="a" horiz-adv-x="562"
                   d="M364 231l-132 -10q-29 -2 -52 -19t-23 -49q0 -30 22.5 -47.5t51.5 -17.5q59 0 96 30.5t37 88.5v24zM531 6q-16 -7 -27.5 -10.5t-34.5 -3.5q-41 0 -63 22t-25 51q-18 -32 -60 -55t-98 -23q-46 0 -81.5 13.5t-59 36t-35.5 52t-12 61.5q0 37 13.5 66t37.5 50t56 32.5
t69 14.5l153 11v32q0 37 -17.5 59.5t-70.5 22.5q-44 0 -68.5 -19t-26.5 -55h-121q3 44 20.5 76t46.5 52.5t67.5 30.5t81.5 10q67 0 119.5 -23.5t75.5 -82.5q10 -25 12.5 -52t2.5 -53v-193q0 -18 6.5 -25.5t22.5 -7.5q8 0 11 1t5 1v-92z" />
            <glyph glyph-name="b" unicode="b" horiz-adv-x="601"
                   d="M432 261q0 34 -6.5 67t-26.5 59q-14 17 -34.5 29t-49.5 12q-37 0 -60 -15.5t-36 -40t-17.5 -54t-4.5 -57.5q0 -38 9 -77.5t36 -64.5q13 -12 31 -19t42 -7q29 0 49.5 12t34.5 29q20 26 26.5 59.5t6.5 67.5zM559 259q0 -74 -23 -131.5t-70 -95.5q-24 -20 -55.5 -32
t-70.5 -12q-43 0 -83 16.5t-63 52.5l-8 -57h-108v722h125v-240q18 22 53.5 36.5t82.5 14.5q40 0 71.5 -11t55.5 -31q47 -38 70 -96.5t23 -135.5z" />
            <glyph glyph-name="c" unicode="c" horiz-adv-x="531"
                   d="M498 184q-2 -31 -12 -60.5t-28 -52.5q-27 -34 -72.5 -58t-105.5 -24t-107 24.5t-74 57.5q-29 37 -43 85t-14 105t14 105t43 85q27 33 74 57.5t107 24.5t105.5 -24t72.5 -58q18 -23 28 -52.5t12 -60.5h-123q-1 14 -5 26t-10 22q-11 17 -31 28t-49 11q-26 0 -44.5 -9
t-31.5 -23q-23 -25 -29 -60t-6 -72t6 -71.5t29 -59.5q13 -14 31.5 -23.5t44.5 -9.5q29 0 49 11t31 28q6 10 10 22t5 26h123z" />
            <glyph glyph-name="d" unicode="d" horiz-adv-x="601"
                   d="M404 261q0 28 -4.5 57.5t-17.5 54t-36 40t-60 15.5q-29 0 -49.5 -12t-34.5 -29q-20 -26 -26.5 -59t-6.5 -67t6.5 -67.5t26.5 -59.5q14 -17 34.5 -29t49.5 -12q37 0 60 15.5t36 40t17.5 54.5t4.5 58zM415 0l-8 57q-23 -36 -63 -52.5t-83 -16.5q-39 0 -71 12t-56 32
q-47 38 -69.5 95.5t-22.5 131.5q0 77 23 135.5t70 96.5q24 20 55.5 31t71.5 11q50 0 84.5 -14.5t51.5 -34.5v238h125v-722h-108z" />
            <glyph glyph-name="e" unicode="e" horiz-adv-x="557"
                   d="M393 312q-1 57 -32 91q-13 14 -32.5 22t-46.5 8q-29 0 -51 -11t-36 -29q-14 -17 -20 -36t-7 -45h225zM518 256v-13q0 -5 -0.5 -11t-0.5 -11h-348q-1 -30 9 -57t29 -45q14 -13 32.5 -22.5t44.5 -9.5q27 0 44.5 5.5t31.5 19.5q18 18 25 44h120q-2 -23 -15.5 -50.5
t-28.5 -45.5q-33 -39 -79 -56t-96 -17q-54 0 -93.5 17.5t-70.5 46.5q-39 38 -59.5 91t-20.5 117q0 63 18.5 116.5t56.5 91.5q29 30 70.5 48t95.5 18q58 0 108 -23.5t82 -72.5q29 -43 38 -87.5t7 -93.5z" />
            <glyph glyph-name="f" unicode="f" horiz-adv-x="379"
                   d="M379 623q-20 4 -38.5 6t-43.5 2q-34 0 -51 -17.5t-17 -45.5v-48h139v-103h-139v-417h-125v417h-88v103h88v50q0 72 46.5 118t130.5 46q27 0 48 -2.5t50 -8.5v-100z" />
            <glyph glyph-name="g" unicode="g" horiz-adv-x="551"
                   d="M418 -72q0 24 -13 37t-31.5 19t-40 7t-39.5 1h-98q-20 -6 -33.5 -22.5t-13.5 -41.5t13.5 -39t33.5 -21.5t43 -9.5t41 -2q19 0 43 1.5t45 8.5t35.5 21.5t14.5 40.5zM363 342q0 42 -24.5 69.5t-67.5 27.5t-67.5 -27.5t-24.5 -69.5t24.5 -69t67.5 -27t67.5 27t24.5 69z
M536 -69q0 -51 -23 -85t-59 -53.5t-80.5 -27.5t-88.5 -8q-48 0 -95.5 7t-88.5 36q-30 21 -46.5 49t-16.5 65q0 34 16 62.5t46 43.5q-25 14 -38.5 38.5t-13.5 50.5q0 67 62 105q-24 24 -38 56t-14 72q0 47 17 82.5t46 59.5t67.5 36.5t82.5 12.5q32 0 62 -8.5t56 -23.5
q17 34 45 49.5t61 15.5h17t17 -2v-97q-2 0 -5 0.5t-5 0.5q-22 0 -39.5 -7t-23.5 -26q27 -44 27 -94q0 -45 -17.5 -80t-46.5 -59t-67.5 -37t-80.5 -13q-44 0 -84 14q-9 -5 -17.5 -14.5t-8.5 -22.5q0 -23 18.5 -30.5t38.5 -7.5h86q20 0 41.5 -0.5t44 -4t44 -10.5t39.5 -20
q34 -23 48.5 -55t14.5 -70z" />
            <glyph glyph-name="h" unicode="h" horiz-adv-x="591"
                   d="M396 0v321q0 45 -18 71t-68 26q-28 0 -48.5 -13.5t-33.5 -34.5t-19 -46.5t-6 -49.5v-274h-125v722h125v-257q23 33 62 50.5t80 17.5q42 0 74.5 -14t55 -39t34.5 -59t12 -74v-347h-125z" />
            <glyph glyph-name="i" unicode="i" horiz-adv-x="286"
                   d="M80 0v520h127v-520h-127zM76 592v129h134v-129h-134z" />
            <glyph glyph-name="j" unicode="j" horiz-adv-x="296"
                   d="M217 -72q0 -67 -38 -106t-108 -39h-21.5t-22.5 2t-26 4t-31 7v106q14 -2 22.5 -3t14.5 -1.5t11.5 -1t12.5 -0.5q29 0 44.5 15t15.5 41v568h126v-592zM86 594v129h134v-129h-134z" />
            <glyph glyph-name="k" unicode="k" horiz-adv-x="577"
                   d="M432 0l-146 227l-83 -90v-137h-125v722h125v-413l197 211h157l-186 -201l206 -319h-145z" />
            <glyph glyph-name="l" unicode="l" horiz-adv-x="302"
                   d="M272 1q-19 -4 -27.5 -5.5t-27.5 -1.5q-64 0 -103 33t-39 107v589h126v-568q0 -23 9 -36.5t41 -13.5q8 0 12 0.5t9 0.5v-105z" />
            <glyph glyph-name="m" unicode="m" horiz-adv-x="885"
                   d="M691 0v323q0 48 -16.5 74.5t-63.5 26.5q-27 0 -46 -12.5t-31.5 -33t-18.5 -45.5t-6 -49v-284h-124v323q0 48 -16.5 74.5t-63.5 26.5q-27 0 -46 -12.5t-32 -33t-19 -45.5t-6 -49v-284h-124v520h104l10 -69q22 36 59 59t89 23q55 0 92 -22.5t57 -62.5q23 41 63.5 63
t93.5 22q84 0 126.5 -50.5t42.5 -131.5v-351h-124z" />
            <glyph glyph-name="n" unicode="n" horiz-adv-x="591"
                   d="M396 0v319q0 46 -18 72t-68 26q-33 0 -55 -18.5t-35 -47.5q-14 -31 -15.5 -68.5t-1.5 -70.5v-212h-125v520h105l9 -67q23 41 65.5 60.5t87.5 19.5q42 0 74.5 -14t55 -38.5t34.5 -58.5t12 -75v-347h-125z" />
            <glyph glyph-name="o" unicode="o"
                   d="M401 260q0 37 -7 71.5t-30 59.5q-13 14 -33 23.5t-46 9.5t-46 -9.5t-33 -23.5q-23 -25 -30 -59.5t-7 -71.5t7 -71.5t30 -59.5q13 -14 33 -23.5t46 -9.5t46 9.5t33 23.5q23 25 30 59.5t7 71.5zM528 260q0 -66 -16 -110.5t-45 -81.5q-27 -33 -74.5 -57t-107.5 -24
t-107.5 24t-74.5 57q-29 37 -45 81.5t-16 110.5t16 110.5t45 81.5q27 33 74.5 57t107.5 24t107.5 -24t74.5 -57q29 -37 45 -81.5t16 -110.5z" />
            <glyph glyph-name="p" unicode="p" horiz-adv-x="601"
                   d="M432 259q0 34 -6.5 67.5t-26.5 59.5q-14 17 -34.5 29t-49.5 12q-37 0 -60 -15.5t-36 -40t-17.5 -54.5t-4.5 -58t4.5 -57.5t17.5 -54t36 -40t60 -15.5q29 0 49.5 12t34.5 29q20 26 26.5 59t6.5 67zM559 261q0 -155 -93 -232q-24 -20 -55.5 -31t-71.5 -11q-47 0 -82.5 14.5
t-53.5 36.5v-237h-125v719h108l8 -57q23 36 63 52.5t83 16.5q39 0 70.5 -12t55.5 -32q47 -38 70 -95.5t23 -131.5z" />
            <glyph glyph-name="q" unicode="q" horiz-adv-x="601"
                   d="M404 259q0 28 -4.5 58t-17.5 54.5t-36 40t-60 15.5q-29 0 -49.5 -12t-34.5 -29q-20 -26 -26.5 -59.5t-6.5 -67.5t6.5 -67t26.5 -59q14 -17 34.5 -29t49.5 -12q37 0 60 15.5t36 40t17.5 54t4.5 57.5zM398 -199v236q-18 -22 -53.5 -36t-82.5 -14q-40 0 -71.5 11t-55.5 31
q-93 77 -93 232q0 74 23 131.5t70 95.5q24 20 55.5 32t70.5 12q43 0 83 -16.5t63 -52.5l8 57h108v-719h-125z" />
            <glyph glyph-name="r" unicode="r" horiz-adv-x="395"
                   d="M381 404q-23 5 -43 5q-66 0 -100 -42t-34 -105v-262h-126v520h106l11 -78q18 45 59.5 65t87.5 20q20 0 39 -3v-120z" />
            <glyph glyph-name="s" unicode="s" horiz-adv-x="521"
                   d="M482 161q0 -38 -12.5 -66t-32.5 -48q-32 -32 -78 -46t-100 -14q-50 0 -93 14.5t-75 45.5q-23 22 -39 53t-16 68h117q0 -17 8 -34t20 -27q15 -12 33.5 -17.5t45.5 -5.5q16 0 34.5 2.5t34.5 9.5t26.5 20t10.5 34q0 23 -14 37t-38 18q-35 5 -72 8.5t-72 11.5q-27 6 -48.5 19
t-37.5 31.5t-24.5 41t-8.5 47.5q0 40 15 68.5t38 48.5q29 25 69 38.5t89 13.5q47 0 90.5 -15t72.5 -46q21 -23 33.5 -50.5t12.5 -56.5h-119q0 15 -6 27t-15 22q-11 11 -29.5 17.5t-38.5 6.5q-14 0 -27 -1t-27 -7q-17 -7 -28.5 -21t-11.5 -34q0 -28 19.5 -38.5t40.5 -13.5
q18 -2 30 -3.5l24 -3t25 -3.5t32 -5q62 -10 102 -47.5t40 -99.5z" />
            <glyph glyph-name="t" unicode="t" horiz-adv-x="400"
                   d="M372 7q-54 -14 -107 -14q-79 0 -118 42.5t-39 117.5v264h-95v103h95v132l125 31v-163h131v-103h-131v-253q0 -30 14 -43.5t44 -13.5q20 0 37.5 1t43.5 4v-105z" />
            <glyph glyph-name="u" unicode="u" horiz-adv-x="590"
                   d="M408 0l-9 68q-19 -38 -59 -59.5t-90 -21.5q-42 0 -75 13.5t-56.5 38t-36 58.5t-12.5 76v347h125v-319q0 -46 20 -72.5t70 -26.5q22 0 37.5 7.5t26.5 18.5q23 21 30.5 53t7.5 64v275h125v-520h-104z" />
            <glyph glyph-name="v" unicode="v" horiz-adv-x="514"
                   d="M326 0h-133l-193 520h132l130 -366l123 366h129z" />
            <glyph glyph-name="w" unicode="w" horiz-adv-x="771"
                   d="M621 0h-116l-118 351l-116 -351h-116l-132 520h121l83 -341l109 336h103l110 -335l80 340h119z" />
            <glyph glyph-name="x" unicode="x" horiz-adv-x="516"
                   d="M334 264l178 -264h-141l-116 174l-114 -174h-137l182 265l-183 255h144l116 -168l113 168h137z" />
            <glyph glyph-name="y" unicode="y" horiz-adv-x="530"
                   d="M301 -89q-10 -26 -23.5 -49.5t-32.5 -41.5t-44.5 -28.5t-59.5 -10.5q-31 0 -53.5 4t-42.5 9v104q12 -2 20.5 -4t16 -3t15.5 -1.5t18 -0.5q17 0 33.5 8t26.5 31l30 73l-205 519h137l136 -376l130 376h127z" />
            <glyph glyph-name="z" unicode="z" horiz-adv-x="507"
                   d="M44 0v110l275 307h-273v103h420v-113l-272 -304h274v-103h-424z" />
            <glyph glyph-name="braceleft" unicode="{" horiz-adv-x="379"
                   d="M326 -148q-43 0 -74 14t-51 37t-29.5 54t-9.5 64v27.5t0.5 34.5t0.5 34.5v27.5q0 66 -29.5 93.5t-88.5 31.5v93q29 3 51 9.5t37 20.5t22.5 37t7.5 57v27.5t-0.5 34.5t-0.5 34.5v27.5q0 33 9.5 64t29.5 54t51 37t74 14h53v-85h-34q-50 0 -69 -24t-19 -67v-154
q0 -22 -7 -43t-20.5 -38.5t-33.5 -30.5t-47 -19v-3q27 -6 47 -19.5t33.5 -31.5t20.5 -39.5t7 -43.5v-154q0 -43 19 -67t69 -24h34v-85h-53z" />
            <glyph glyph-name="bar" unicode="|" horiz-adv-x="268"
                   d="M85 -148v928h98v-928h-98z" />
            <glyph glyph-name="braceright" unicode="}" horiz-adv-x="379"
                   d="M334 270q-59 -4 -88.5 -31.5t-29.5 -93.5v-27.5t0.5 -34.5t0.5 -34.5v-27.5q0 -33 -9.5 -64t-29.5 -54t-51 -37t-74 -14h-53v85h34q50 0 69 24t19 67v154q0 22 7 43.5t20.5 39.5t33.5 31.5t47 19.5v3q-27 6 -47 19t-33.5 30.5t-20.5 38.5t-7 43v154q0 43 -19 67t-69 24
h-34v85h53q43 0 74 -14t51 -37t29.5 -54t9.5 -64v-27.5t-0.5 -34.5t-0.5 -34.5v-27.5q0 -34 8 -57t23 -37t37 -20.5t50 -9.5v-93z" />
            <glyph glyph-name="asciitilde" unicode="~" horiz-adv-x="683"
                   d="M623 306q-19 -20 -39.5 -38t-43 -32t-48 -22t-54.5 -8t-56 9.5t-51 21.5t-46.5 21.5t-42.5 9.5q-31 0 -57 -19.5t-46 -40.5l-79 95q19 20 39 38.5t42 32.5t47.5 22.5t54.5 8.5t55 -9.5t50 -20.5t46.5 -20.5t43.5 -9.5q31 0 58 17.5t47 38.5z" />
            <glyph glyph-name="Adieresis" unicode="&#xc4;" horiz-adv-x="639"
                   d="M317 551l-101 -299h202zM504 0l-46 136h-282l-46 -136h-130l249 709h141l249 -709h-135zM156 791v121h117v-121h-117zM362 791v121h117v-121h-117z" />
            <glyph glyph-name="Aring" unicode="&#xc5;" horiz-adv-x="639"
                   d="M317 551l-101 -299h202zM375 765q0 23 -16.5 39t-39.5 16t-38.5 -16t-15.5 -39t15.5 -39.5t38.5 -16.5t39.5 16.5t16.5 39.5zM504 0l-46 136h-282l-46 -136h-130l235 669q-20 17 -32 42t-12 54q0 27 10 50t27.5 40t40.5 27t50 10t50 -10t40.5 -27t27.5 -40t10 -50
q0 -29 -11.5 -54t-31.5 -42l235 -669h-135z" />
            <glyph glyph-name="Ccedilla" unicode="&#xc7;" horiz-adv-x="628"
                   d="M322 -240l-104 49l83 150h97zM600 226q-5 -42 -21 -82.5t-47 -72.5q-40 -41 -93 -62.5t-110 -21.5t-108.5 19t-92.5 60q-29 29 -46.5 61t-26.5 68t-12 76t-3 83q0 44 3 83.5t12 75.5t26.5 68t46.5 61q41 41 92.5 60.5t108.5 19.5t110 -20.5t93 -61.5q31 -32 47 -72
t21 -82h-132q-2 23 -10 40.5t-22 34.5q-17 22 -45.5 33t-61.5 11q-31 0 -59.5 -12t-49.5 -35q-18 -19 -28 -44t-14.5 -52.5t-5.5 -55.5t-1 -52t1 -52t5.5 -55.5t14.5 -52.5t28 -44q21 -23 49.5 -35t59.5 -12q33 0 61.5 11.5t45.5 33.5q28 34 32 78h132z" />
            <glyph glyph-name="Eacute" unicode="&#xc9;" horiz-adv-x="628"
                   d="M83 0v709h505v-117h-376v-165h331v-116h-331v-194h376v-117h-505zM251 764l-40 65l184 138l56 -91z" />
            <glyph glyph-name="Ntilde" unicode="&#xd1;" horiz-adv-x="733"
                   d="M517 0l-307 487v-487h-127v709h137l303 -480v480h127v-709h-133zM537 852q-23 -23 -52 -41.5t-63 -18.5q-20 0 -37 6.5t-31 14t-27 14t-26 6.5q-18 0 -35 -10t-28 -23l-51 64q23 23 51.5 41.5t63.5 18.5q20 0 36.5 -6.5t30.5 -14.5t27 -14.5t27 -6.5q17 0 34.5 11.5
t28.5 22.5z" />
            <glyph glyph-name="Odieresis" unicode="&#xd6;" horiz-adv-x="658"
                   d="M175 793v121h117v-121h-117zM381 793v121h117v-121h-117zM499 354q0 24 -1 52t-6 55.5t-15.5 52.5t-28.5 44q-21 23 -51 35t-61 12t-61 -12t-51 -35q-18 -19 -28.5 -44t-15.5 -52.5t-6 -55.5t-1 -52t1 -52t6 -55t15.5 -52t28.5 -44q21 -23 51 -35t61 -12t61 12t51 35
q18 19 28.5 44t15.5 52t6 55t1 52zM630 354q0 -43 -3 -82.5t-13 -75.5t-27.5 -68t-46.5 -61q-41 -41 -94 -60.5t-110 -19.5t-110 19.5t-94 60.5q-29 29 -46.5 61t-27.5 68t-13 75.5t-3 82.5q0 44 3 83.5t13 75.5t27.5 68t46.5 61q41 41 94 60.5t110 19.5t110 -19.5t94 -60.5
q29 -29 46.5 -61t27.5 -68t13 -75.5t3 -83.5z" />
            <glyph glyph-name="Udieresis" unicode="&#xdc;" horiz-adv-x="682"
                   d="M179 792v121h117v-121h-117zM385 792v121h117v-121h-117zM619 272q0 -63 -17.5 -115.5t-52.5 -90t-87 -58.5t-121 -21t-121 21t-87 58.5t-52.5 90t-17.5 115.5v437h129v-435q0 -76 36 -123t113 -47t113 47t36 123v435h129v-437z" />
            <glyph glyph-name="aacute" unicode="&#xe1;" horiz-adv-x="562"
                   d="M364 231l-132 -10q-29 -2 -52 -19t-23 -49q0 -30 22.5 -47.5t51.5 -17.5q59 0 96 30.5t37 88.5v24zM531 6q-16 -7 -27.5 -10.5t-34.5 -3.5q-41 0 -63 22t-25 51q-18 -32 -60 -55t-98 -23q-46 0 -81.5 13.5t-59 36t-35.5 52t-12 61.5q0 37 13.5 66t37.5 50t56 32.5
t69 14.5l153 11v32q0 37 -17.5 59.5t-70.5 22.5q-44 0 -68.5 -19t-26.5 -55h-121q3 44 20.5 76t46.5 52.5t67.5 30.5t81.5 10q67 0 119.5 -23.5t75.5 -82.5q10 -25 12.5 -52t2.5 -53v-193q0 -18 6.5 -25.5t22.5 -7.5q8 0 11 1t5 1v-92zM182 566l-40 65l184 138l56 -91z" />
            <glyph glyph-name="agrave" unicode="&#xe0;" horiz-adv-x="562"
                   d="M157 678l56 91l184 -138l-40 -65zM364 231l-132 -10q-29 -2 -52 -19t-23 -49q0 -30 22.5 -47.5t51.5 -17.5q59 0 96 30.5t37 88.5v24zM531 6q-16 -7 -27.5 -10.5t-34.5 -3.5q-41 0 -63 22t-25 51q-18 -32 -60 -55t-98 -23q-46 0 -81.5 13.5t-59 36t-35.5 52t-12 61.5
q0 37 13.5 66t37.5 50t56 32.5t69 14.5l153 11v32q0 37 -17.5 59.5t-70.5 22.5q-44 0 -68.5 -19t-26.5 -55h-121q3 44 20.5 76t46.5 52.5t67.5 30.5t81.5 10q67 0 119.5 -23.5t75.5 -82.5q10 -25 12.5 -52t2.5 -53v-193q0 -18 6.5 -25.5t22.5 -7.5q8 0 11 1t5 1v-92z" />
            <glyph glyph-name="acircumflex" unicode="&#xe2;" horiz-adv-x="562"
                   d="M376 574l-103 113l-105 -116l-64 58l138 145h61l134 -145zM364 231l-132 -10q-29 -2 -52 -19t-23 -49q0 -30 22.5 -47.5t51.5 -17.5q59 0 96 30.5t37 88.5v24zM531 6q-16 -7 -27.5 -10.5t-34.5 -3.5q-41 0 -63 22t-25 51q-18 -32 -60 -55t-98 -23q-46 0 -81.5 13.5
t-59 36t-35.5 52t-12 61.5q0 37 13.5 66t37.5 50t56 32.5t69 14.5l153 11v32q0 37 -17.5 59.5t-70.5 22.5q-44 0 -68.5 -19t-26.5 -55h-121q3 44 20.5 76t46.5 52.5t67.5 30.5t81.5 10q67 0 119.5 -23.5t75.5 -82.5q10 -25 12.5 -52t2.5 -53v-193q0 -18 6.5 -25.5t22.5 -7.5
q8 0 11 1t5 1v-92z" />
            <glyph glyph-name="adieresis" unicode="&#xe4;" horiz-adv-x="562"
                   d="M364 231l-132 -10q-29 -2 -52 -19t-23 -49q0 -30 22.5 -47.5t51.5 -17.5q59 0 96 30.5t37 88.5v24zM531 6q-16 -7 -27.5 -10.5t-34.5 -3.5q-41 0 -63 22t-25 51q-18 -32 -60 -55t-98 -23q-46 0 -81.5 13.5t-59 36t-35.5 52t-12 61.5q0 37 13.5 66t37.5 50t56 32.5
t69 14.5l153 11v32q0 37 -17.5 59.5t-70.5 22.5q-44 0 -68.5 -19t-26.5 -55h-121q3 44 20.5 76t46.5 52.5t67.5 30.5t81.5 10q67 0 119.5 -23.5t75.5 -82.5q10 -25 12.5 -52t2.5 -53v-193q0 -18 6.5 -25.5t22.5 -7.5q8 0 11 1t5 1v-92zM119 601v121h117v-121h-117zM325 601
v121h117v-121h-117z" />
            <glyph glyph-name="atilde" unicode="&#xe3;" horiz-adv-x="562"
                   d="M443 672q-23 -23 -51 -41t-62 -18q-20 0 -36 6.5t-30.5 14t-27 13.5t-24.5 6q-18 0 -34.5 -9.5t-27.5 -22.5l-50 63q23 23 51 41t62 18q20 0 35.5 -6.5t29.5 -14t27 -14t26 -6.5q17 0 34 11t28 22zM364 231l-132 -10q-29 -2 -52 -19t-23 -49q0 -30 22.5 -47.5t51.5 -17.5
q59 0 96 30.5t37 88.5v24zM531 6q-16 -7 -27.5 -10.5t-34.5 -3.5q-41 0 -63 22t-25 51q-18 -32 -60 -55t-98 -23q-46 0 -81.5 13.5t-59 36t-35.5 52t-12 61.5q0 37 13.5 66t37.5 50t56 32.5t69 14.5l153 11v32q0 37 -17.5 59.5t-70.5 22.5q-44 0 -68.5 -19t-26.5 -55h-121
q3 44 20.5 76t46.5 52.5t67.5 30.5t81.5 10q67 0 119.5 -23.5t75.5 -82.5q10 -25 12.5 -52t2.5 -53v-193q0 -18 6.5 -25.5t22.5 -7.5q8 0 11 1t5 1v-92z" />
            <glyph glyph-name="aring" unicode="&#xe5;" horiz-adv-x="562"
                   d="M327 710q0 22 -15.5 37t-37.5 15t-37 -15t-15 -37t15 -37.5t37 -15.5t37.5 15.5t15.5 37.5zM396 710q0 -25 -9.5 -47.5t-26 -39t-38.5 -26t-48 -9.5q-25 0 -47.5 9.5t-39 26t-26 39t-9.5 47.5q0 26 9.5 48t26 38t39 25.5t47.5 9.5q26 0 48 -9.5t38.5 -25.5t26 -38
t9.5 -48zM364 231l-132 -10q-29 -2 -52 -19t-23 -49q0 -30 22.5 -47.5t51.5 -17.5q59 0 96 30.5t37 88.5v24zM531 6q-16 -7 -27.5 -10.5t-34.5 -3.5q-41 0 -63 22t-25 51q-18 -32 -60 -55t-98 -23q-46 0 -81.5 13.5t-59 36t-35.5 52t-12 61.5q0 37 13.5 66t37.5 50t56 32.5
t69 14.5l153 11v32q0 37 -17.5 59.5t-70.5 22.5q-44 0 -68.5 -19t-26.5 -55h-121q3 44 20.5 76t46.5 52.5t67.5 30.5t81.5 10q67 0 119.5 -23.5t75.5 -82.5q10 -25 12.5 -52t2.5 -53v-193q0 -18 6.5 -25.5t22.5 -7.5q8 0 11 1t5 1v-92z" />
            <glyph glyph-name="ccedilla" unicode="&#xe7;" horiz-adv-x="531"
                   d="M498 184q-2 -31 -12 -60.5t-28 -52.5q-27 -34 -72.5 -58t-105.5 -24t-107 24.5t-74 57.5q-29 37 -43 85t-14 105t14 105t43 85q27 33 74 57.5t107 24.5t105.5 -24t72.5 -58q18 -23 28 -52.5t12 -60.5h-123q-1 14 -5 26t-10 22q-11 17 -31 28t-49 11q-26 0 -44.5 -9
t-31.5 -23q-23 -25 -29 -60t-6 -72t6 -71.5t29 -59.5q13 -14 31.5 -23.5t44.5 -9.5q29 0 49 11t31 28q6 10 10 22t5 26h123zM274 -242l-104 49l83 150h97z" />
            <glyph glyph-name="eacute" unicode="&#xe9;" horiz-adv-x="557"
                   d="M393 312q-1 57 -32 91q-13 14 -32.5 22t-46.5 8q-29 0 -51 -11t-36 -29q-14 -17 -20 -36t-7 -45h225zM518 256v-13q0 -5 -0.5 -11t-0.5 -11h-348q-1 -30 9 -57t29 -45q14 -13 32.5 -22.5t44.5 -9.5q27 0 44.5 5.5t31.5 19.5q18 18 25 44h120q-2 -23 -15.5 -50.5
t-28.5 -45.5q-33 -39 -79 -56t-96 -17q-54 0 -93.5 17.5t-70.5 46.5q-39 38 -59.5 91t-20.5 117q0 63 18.5 116.5t56.5 91.5q29 30 70.5 48t95.5 18q58 0 108 -23.5t82 -72.5q29 -43 38 -87.5t7 -93.5zM209 566l-40 65l184 138l56 -91z" />
            <glyph glyph-name="egrave" unicode="&#xe8;" horiz-adv-x="557"
                   d="M164 679l56 91l184 -138l-40 -65zM393 312q-1 57 -32 91q-13 14 -32.5 22t-46.5 8q-29 0 -51 -11t-36 -29q-14 -17 -20 -36t-7 -45h225zM518 256v-13q0 -5 -0.5 -11t-0.5 -11h-348q-1 -30 9 -57t29 -45q14 -13 32.5 -22.5t44.5 -9.5q27 0 44.5 5.5t31.5 19.5q18 18 25 44
h120q-2 -23 -15.5 -50.5t-28.5 -45.5q-33 -39 -79 -56t-96 -17q-54 0 -93.5 17.5t-70.5 46.5q-39 38 -59.5 91t-20.5 117q0 63 18.5 116.5t56.5 91.5q29 30 70.5 48t95.5 18q58 0 108 -23.5t82 -72.5q29 -43 38 -87.5t7 -93.5z" />
            <glyph glyph-name="ecircumflex" unicode="&#xea;" horiz-adv-x="557"
                   d="M380 574l-103 113l-105 -116l-64 58l138 145h61l134 -145zM393 312q-1 57 -32 91q-13 14 -32.5 22t-46.5 8q-29 0 -51 -11t-36 -29q-14 -17 -20 -36t-7 -45h225zM518 256v-13q0 -5 -0.5 -11t-0.5 -11h-348q-1 -30 9 -57t29 -45q14 -13 32.5 -22.5t44.5 -9.5
q27 0 44.5 5.5t31.5 19.5q18 18 25 44h120q-2 -23 -15.5 -50.5t-28.5 -45.5q-33 -39 -79 -56t-96 -17q-54 0 -93.5 17.5t-70.5 46.5q-39 38 -59.5 91t-20.5 117q0 63 18.5 116.5t56.5 91.5q29 30 70.5 48t95.5 18q58 0 108 -23.5t82 -72.5q29 -43 38 -87.5t7 -93.5z" />
            <glyph glyph-name="edieresis" unicode="&#xeb;" horiz-adv-x="557"
                   d="M393 312q-1 57 -32 91q-13 14 -32.5 22t-46.5 8q-29 0 -51 -11t-36 -29q-14 -17 -20 -36t-7 -45h225zM518 256v-13q0 -5 -0.5 -11t-0.5 -11h-348q-1 -30 9 -57t29 -45q14 -13 32.5 -22.5t44.5 -9.5q27 0 44.5 5.5t31.5 19.5q18 18 25 44h120q-2 -23 -15.5 -50.5
t-28.5 -45.5q-33 -39 -79 -56t-96 -17q-54 0 -93.5 17.5t-70.5 46.5q-39 38 -59.5 91t-20.5 117q0 63 18.5 116.5t56.5 91.5q29 30 70.5 48t95.5 18q58 0 108 -23.5t82 -72.5q29 -43 38 -87.5t7 -93.5zM130 601v121h117v-121h-117zM336 601v121h117v-121h-117z" />
            <glyph glyph-name="iacute" unicode="&#xed;" horiz-adv-x="286"
                   d="M60 568l-36 60l164 127l50 -84zM80 0v520h127v-520h-127z" />
            <glyph glyph-name="igrave" unicode="&#xec;" horiz-adv-x="286"
                   d="M32 670l50 84l164 -127l-36 -60zM80 0v520h127v-520h-127z" />
            <glyph glyph-name="icircumflex" unicode="&#xee;" horiz-adv-x="286"
                   d="M236 569l-91 104l-94 -107l-57 53l123 134h54l120 -134zM80 0v520h127v-520h-127z" />
            <glyph glyph-name="idieresis" unicode="&#xef;" horiz-adv-x="286"
                   d="M-1 608v107h104v-107h-104zM183 608v107h104v-107h-104zM80 0v520h127v-520h-127z" />
            <glyph glyph-name="ntilde" unicode="&#xf1;" horiz-adv-x="591"
                   d="M476 672q-23 -23 -51 -41t-61 -18q-20 0 -36.5 6.5t-30.5 14t-27 13.5t-25 6q-17 0 -33.5 -9.5t-28.5 -22.5l-50 63q23 23 51 41t62 18q20 0 36 -6.5t29.5 -14t26.5 -14t27 -6.5q16 0 33 11t28 22zM396 0v319q0 46 -18 72t-68 26q-33 0 -55 -18.5t-35 -47.5
q-14 -31 -15.5 -68.5t-1.5 -70.5v-212h-125v520h105l9 -67q23 41 65.5 60.5t87.5 19.5q42 0 74.5 -14t55 -38.5t34.5 -58.5t12 -75v-347h-125z" />
            <glyph glyph-name="oacute" unicode="&#xf3;"
                   d="M210 566l-40 65l184 138l56 -91zM401 260q0 37 -7 71.5t-30 59.5q-13 14 -33 23.5t-46 9.5t-46 -9.5t-33 -23.5q-23 -25 -30 -59.5t-7 -71.5t7 -71.5t30 -59.5q13 -14 33 -23.5t46 -9.5t46 9.5t33 23.5q23 25 30 59.5t7 71.5zM528 260q0 -66 -16 -110.5t-45 -81.5
q-27 -33 -74.5 -57t-107.5 -24t-107.5 24t-74.5 57q-29 37 -45 81.5t-16 110.5t16 110.5t45 81.5q27 33 74.5 57t107.5 24t107.5 -24t74.5 -57q29 -37 45 -81.5t16 -110.5z" />
            <glyph glyph-name="ograve" unicode="&#xf2;"
                   d="M167 679l56 91l184 -138l-40 -65zM401 260q0 37 -7 71.5t-30 59.5q-13 14 -33 23.5t-46 9.5t-46 -9.5t-33 -23.5q-23 -25 -30 -59.5t-7 -71.5t7 -71.5t30 -59.5q13 -14 33 -23.5t46 -9.5t46 9.5t33 23.5q23 25 30 59.5t7 71.5zM528 260q0 -66 -16 -110.5t-45 -81.5
q-27 -33 -74.5 -57t-107.5 -24t-107.5 24t-74.5 57q-29 37 -45 81.5t-16 110.5t16 110.5t45 81.5q27 33 74.5 57t107.5 24t107.5 -24t74.5 -57q29 -37 45 -81.5t16 -110.5z" />
            <glyph glyph-name="ocircumflex" unicode="&#xf4;"
                   d="M384 574l-103 113l-105 -116l-64 58l138 145h61l134 -145zM401 260q0 37 -7 71.5t-30 59.5q-13 14 -33 23.5t-46 9.5t-46 -9.5t-33 -23.5q-23 -25 -30 -59.5t-7 -71.5t7 -71.5t30 -59.5q13 -14 33 -23.5t46 -9.5t46 9.5t33 23.5q23 25 30 59.5t7 71.5zM528 260
q0 -66 -16 -110.5t-45 -81.5q-27 -33 -74.5 -57t-107.5 -24t-107.5 24t-74.5 57q-29 37 -45 81.5t-16 110.5t16 110.5t45 81.5q27 33 74.5 57t107.5 24t107.5 -24t74.5 -57q29 -37 45 -81.5t16 -110.5z" />
            <glyph glyph-name="odieresis" unicode="&#xf6;"
                   d="M128 601v121h117v-121h-117zM334 601v121h117v-121h-117zM401 260q0 37 -7 71.5t-30 59.5q-13 14 -33 23.5t-46 9.5t-46 -9.5t-33 -23.5q-23 -25 -30 -59.5t-7 -71.5t7 -71.5t30 -59.5q13 -14 33 -23.5t46 -9.5t46 9.5t33 23.5q23 25 30 59.5t7 71.5zM528 260
q0 -66 -16 -110.5t-45 -81.5q-27 -33 -74.5 -57t-107.5 -24t-107.5 24t-74.5 57q-29 37 -45 81.5t-16 110.5t16 110.5t45 81.5q27 33 74.5 57t107.5 24t107.5 -24t74.5 -57q29 -37 45 -81.5t16 -110.5z" />
            <glyph glyph-name="otilde" unicode="&#xf5;"
                   d="M444 678q-22 -23 -50.5 -40.5t-61.5 -17.5q-20 0 -36.5 6.5t-30.5 14t-27 13.5t-25 6q-17 0 -33.5 -10t-28.5 -23l-50 63q23 23 51 41t62 18q20 0 36 -6.5t29.5 -14t26.5 -14t27 -6.5q16 0 33 11t28 22zM401 260q0 37 -7 71.5t-30 59.5q-13 14 -33 23.5t-46 9.5t-46 -9.5
t-33 -23.5q-23 -25 -30 -59.5t-7 -71.5t7 -71.5t30 -59.5q13 -14 33 -23.5t46 -9.5t46 9.5t33 23.5q23 25 30 59.5t7 71.5zM528 260q0 -66 -16 -110.5t-45 -81.5q-27 -33 -74.5 -57t-107.5 -24t-107.5 24t-74.5 57q-29 37 -45 81.5t-16 110.5t16 110.5t45 81.5
q27 33 74.5 57t107.5 24t107.5 -24t74.5 -57q29 -37 45 -81.5t16 -110.5z" />
            <glyph glyph-name="uacute" unicode="&#xfa;" horiz-adv-x="590"
                   d="M408 0l-9 68q-19 -38 -59 -59.5t-90 -21.5q-42 0 -75 13.5t-56.5 38t-36 58.5t-12.5 76v347h125v-319q0 -46 20 -72.5t70 -26.5q22 0 37.5 7.5t26.5 18.5q23 21 30.5 53t7.5 64v275h125v-520h-104zM222 566l-40 65l184 138l56 -91z" />
            <glyph glyph-name="ugrave" unicode="&#xf9;" horiz-adv-x="590"
                   d="M161 678l56 91l184 -138l-40 -65zM408 0l-9 68q-19 -38 -59 -59.5t-90 -21.5q-42 0 -75 13.5t-56.5 38t-36 58.5t-12.5 76v347h125v-319q0 -46 20 -72.5t70 -26.5q22 0 37.5 7.5t26.5 18.5q23 21 30.5 53t7.5 64v275h125v-520h-104z" />
            <glyph glyph-name="ucircumflex" unicode="&#xfb;" horiz-adv-x="590"
                   d="M390 574l-103 113l-105 -116l-64 58l138 145h61l134 -145zM408 0l-9 68q-19 -38 -59 -59.5t-90 -21.5q-42 0 -75 13.5t-56.5 38t-36 58.5t-12.5 76v347h125v-319q0 -46 20 -72.5t70 -26.5q22 0 37.5 7.5t26.5 18.5q23 21 30.5 53t7.5 64v275h125v-520h-104z" />
            <glyph glyph-name="udieresis" unicode="&#xfc;" horiz-adv-x="590"
                   d="M408 0l-9 68q-19 -38 -59 -59.5t-90 -21.5q-42 0 -75 13.5t-56.5 38t-36 58.5t-12.5 76v347h125v-319q0 -46 20 -72.5t70 -26.5q22 0 37.5 7.5t26.5 18.5q23 21 30.5 53t7.5 64v275h125v-520h-104zM134 601v121h117v-121h-117zM340 601v121h117v-121h-117z" />
            <glyph glyph-name="dagger" unicode="&#x2020;" horiz-adv-x="562"
                   d="M338 415v-540h-114v540h-184v105h184v189h114v-189h184v-105h-184z" />
            <glyph glyph-name="degree" unicode="&#xb0;" horiz-adv-x="446"
                   d="M298 555q0 32 -22.5 54t-54.5 22t-53.5 -22t-21.5 -54q0 -33 21.5 -55.5t53.5 -22.5t54.5 22.5t22.5 55.5zM396 555q0 -38 -14 -69.5t-38 -53.5t-55.5 -34t-67.5 -12t-67 13t-54 35.5t-36.5 53.5t-13.5 67q0 35 11.5 65t33.5 53t54 36t72 13q39 0 71 -12.5t55 -35t36 -53
t13 -66.5z" />
            <glyph glyph-name="cent" unicode="&#xa2;"
                   d="M271 514q-24 -9 -42 -28q-23 -25 -28.5 -60t-5.5 -72t5.5 -72t28.5 -60q18 -19 42 -28v320zM521 276q-3 -64 -40 -112q-23 -30 -60.5 -53t-87.5 -28v-85h-62v87q-48 7 -85.5 29t-60.5 50q-29 36 -41.5 84.5t-12.5 105.5t12.5 105.5t41.5 84.5q23 28 60.5 50.5t85.5 29.5
v88h62v-87q50 -5 87.5 -28t60.5 -53q37 -48 40 -112h-121q-1 14 -5 25.5t-10 21.5q-17 28 -52 37v-324q35 9 52 37q6 10 10 21.5t5 25.5h121z" />
            <glyph glyph-name="sterling" unicode="&#xa3;" horiz-adv-x="575"
                   d="M549 192q0 -94 -49.5 -143t-143.5 -49h-318v110q76 0 76 74v130h-75v103h75v91q0 95 55.5 148.5t149.5 53.5q42 0 78.5 -13t63.5 -38t42.5 -60t15.5 -79h-125q0 35 -19 58.5t-56 23.5q-41 0 -60 -25t-19 -63v-97h143v-103h-143v-131q0 -10 -1.5 -21t-5.5 -20.5t-11.5 -17
t-18.5 -10.5v-2h151q42 0 59 19.5t17 60.5h119z" />
            <glyph glyph-name="section" unicode="&#xa7;" horiz-adv-x="549"
                   d="M394 165q0 17 -7 34t-21 29l-160 139q-17 -12 -31 -29t-14 -37q0 -17 6.5 -34t20.5 -29l161 -139q17 12 31 29t14 37zM504 173q0 -46 -25 -79.5t-61 -58.5q20 -23 30 -49.5t10 -60.5q0 -36 -12.5 -64.5t-33.5 -49.5q-26 -26 -63 -40.5t-79 -14.5q-39 0 -73.5 12t-60.5 35
t-41 56.5t-15 76.5h109q0 -35 21 -58.5t59 -23.5q35 0 56 18.5t21 50.5q0 21 -10 36.5t-25 29.5l-195 167q-31 26 -48.5 61t-17.5 76q0 46 25.5 79t61.5 58q-20 23 -30.5 50t-10.5 61q0 36 13 64t34 49q26 26 63 41t79 15q39 0 73.5 -12t60.5 -35.5t41 -57t15 -76.5h-110
q0 35 -20.5 59t-58.5 24q-35 0 -56 -18.5t-21 -50.5q0 -21 9.5 -36.5t24.5 -29.5l195 -167q31 -26 48.5 -61t17.5 -76z" />
            <glyph glyph-name="bullet" unicode="&#x2022;" horiz-adv-x="432"
                   d="M357 292q0 -29 -11 -55t-30 -45t-45 -30t-55 -11t-55 11t-45 30t-30 45t-11 55t11 55t30 45t45 30t55 11t55 -11t45 -30t30 -45t11 -55z" />
            <glyph glyph-name="paragraph" unicode="&#xb6;" horiz-adv-x="673"
                   d="M545 612v-737h-100v737h-97v-737h-99v436q-41 0 -77.5 15.5t-63.5 42.5t-42.5 63.5t-15.5 77.5t15.5 77.5t42.5 63.5t63.5 42.5t77.5 15.5h364v-97h-68z" />
            <glyph glyph-name="germandbls" unicode="&#xdf;" horiz-adv-x="609"
                   d="M584 211q0 -48 -15.5 -88.5t-43.5 -70t-68 -46t-89 -16.5q-23 0 -47.5 2.5t-46.5 7.5v109q16 -3 33.5 -4.5t33.5 -1.5q56 0 86.5 33.5t30.5 87.5q0 66 -38 94.5t-98 28.5h-21v104h21q41 0 64 22.5t23 61.5q0 41 -24 65t-65 24q-55 0 -77 -33.5t-22 -86.5v-504h-123v417
h-83v103h85q1 50 18 89.5t46.5 66.5t69.5 41.5t88 14.5q45 0 84 -13t67.5 -37.5t45 -59t16.5 -76.5q0 -22 -6.5 -44.5t-18.5 -42t-29.5 -34t-40.5 -21.5q35 -8 62 -26t45 -43.5t27.5 -57t9.5 -66.5z" />
            <glyph glyph-name="registered" unicode="&#xae;" horiz-adv-x="838"
                   d="M474 422q0 20 -13 29t-31 9h-53v-79h53q20 0 32 10.5t12 30.5zM474 178l-49 120h-47v-120h-93v365h145q29 0 54 -8t44 -23.5t29.5 -38.5t10.5 -54q0 -32 -13.5 -60t-43.5 -43l60 -138h-97zM695 354q0 61 -20 112.5t-56.5 89t-87 59t-112.5 21.5q-61 0 -112 -21.5
t-87.5 -59t-56.5 -89t-20 -112.5t20 -113t56 -89.5t87 -58.5t113 -21q61 0 112 21.5t87.5 59t56.5 89.5t20 112zM789 354q0 -81 -27.5 -148.5t-77 -116t-117.5 -76t-148 -27.5q-81 0 -148.5 27.5t-117 76t-77 116t-27.5 148.5q0 80 28 147.5t77.5 116.5t117.5 76.5t147 27.5
q80 0 147.5 -27.5t117 -77t77.5 -116.5t28 -147z" />
            <glyph glyph-name="copyright" unicode="&#xa9;" horiz-adv-x="838"
                   d="M597 301q-4 -32 -18 -59t-36.5 -47t-52.5 -31t-66 -11q-45 0 -80 16t-59 43t-36.5 63.5t-12.5 76.5q0 41 12.5 77t36.5 63t59 42.5t80 15.5q36 0 66 -11t52.5 -31t36.5 -47t18 -59h-102q-4 23 -22.5 40t-48.5 17q-22 0 -38 -9t-26.5 -24t-15.5 -34.5t-5 -39.5
q0 -47 21.5 -77.5t63.5 -30.5q30 0 48.5 17t22.5 40h102zM696 354q0 61 -20 112.5t-57 89t-87.5 59t-112.5 21.5q-61 0 -112 -21.5t-87.5 -59t-56.5 -89t-20 -112.5t20 -113t56 -89.5t87 -58.5t113 -21q61 0 112 21.5t87.5 59t57 89.5t20.5 112zM789 354q0 -81 -27.5 -148.5
t-77 -116t-117.5 -76t-148 -27.5q-81 0 -148.5 27.5t-117 76t-77 116t-27.5 148.5q0 80 28 147.5t77.5 116.5t117.5 76.5t147 27.5q80 0 147.5 -27.5t117 -77t77.5 -116.5t28 -147z" />
            <glyph glyph-name="trademark" unicode="&#x2122;" horiz-adv-x="857"
                   d="M216 624v-296h-96v296h-110v85h316v-85h-110zM702 328v256l-78 -246h-73l-78 245v-255h-95v381h135l77 -241l76 241h131v-381h-95z" />
            <glyph glyph-name="acute" unicode="&#xb4;" horiz-adv-x="255"
                   d="M47 566l-40 65l184 138l56 -91z" />
            <glyph glyph-name="dieresis" unicode="&#xa8;" horiz-adv-x="323"
                   d="M0 601v121h117v-121h-117zM206 601v121h117v-121h-117z" />
            <glyph glyph-name="notequal" unicode="&#x2260;" horiz-adv-x="690"
                   d="M261 129l-101 -131l-58 44l67 87h-79v99h155l77 100h-232v98h308l97 126l57 -45l-62 -81h110v-98h-186l-77 -100h263v-99h-339z" />
            <glyph glyph-name="AE" unicode="&#xc6;" horiz-adv-x="957"
                   d="M455 589h-55l-128 -291h183v291zM455 0v179h-237l-77 -179h-141l323 709h594v-120h-333v-160h285v-120h-285v-189h333v-120h-462z" />
            <glyph glyph-name="Oslash" unicode="&#xd8;" horiz-adv-x="672"
                   d="M400 591q-31 14 -64 14q-31 0 -61 -12t-51 -35q-18 -19 -28.5 -44t-15.5 -52.5t-6 -55.5t-1 -52q0 -42 5 -91t28 -88zM499 354q0 22 -0.5 47t-4.5 50.5t-12 49.5t-22 43l-197 -422q35 -18 73 -18q31 0 61 12t51 35q18 19 28.5 44t15.5 52t6 55t1 52zM630 354
q0 -43 -3 -82.5t-13 -75.5t-27.5 -68t-46.5 -61q-41 -41 -94 -60.5t-110 -19.5q-67 0 -124 25l-40 -84l-67 30l43 94q-5 4 -8.5 7.5l-7.5 7.5q-29 29 -46.5 61t-27.5 68t-13 75.5t-3 82.5q0 44 3 83.5t13 75.5t27.5 68t46.5 61q41 41 94 60.5t110 19.5q62 0 115 -22l33 70
l67 -30l-35 -76q6 -5 12 -10.5t12 -11.5q29 -29 46.5 -61t27.5 -68t13 -75.5t3 -83.5z" />
            <glyph glyph-name="infinity" unicode="&#x221e;" horiz-adv-x="719"
                   d="M443 312h-121q-51 0 -83.5 -27.5t-32.5 -78.5t31.5 -75.5t79.5 -24.5h126v206zM313 0q-47 0 -88.5 12t-73 36.5t-50 62t-18.5 88.5q0 24 7.5 49.5t21.5 48t33 40.5t41 27q-42 25 -66 65t-24 89t18.5 85t50 60t72 35.5t85.5 11.5q25 0 50 -2t49 -8v-108q-23 5 -45.5 7.5
t-45.5 2.5q-21 0 -41 -5t-35 -16t-24.5 -28t-9.5 -41q0 -49 31 -71.5t76 -22.5h116v104h117v-104h103v-106h-103v-206h103v-106h-350z" />
            <glyph glyph-name="plusminus" unicode="&#xb1;" horiz-adv-x="608"
                   d="M50 0v106h508v-106h-508zM360 322v-160h-113v160h-197v105h197v160h113v-160h198v-105h-198z" />
            <glyph glyph-name="lessequal" unicode="&#x2264;" horiz-adv-x="797"
                   d="M212 275l204 -204l-70 -70l-321 323l321 323l70 -69l-204 -205h540v-98h-540z" />
            <glyph glyph-name="greaterequal" unicode="&#x2265;" horiz-adv-x="797"
                   d="M451 0l-70 70l204 204h-540v98h540l-204 205l70 69l321 -323z" />
            <glyph glyph-name="yen" unicode="&#xa5;" horiz-adv-x="569"
                   d="M404 398h114v-73h-170v-90h170v-73h-170v-162h-128v162h-159v73h159v90h-159v73h104l-165 297h139l149 -271l144 271h137z" />
            <glyph glyph-name="mu" unicode="&#xb5;" horiz-adv-x="598"
                   d="M416 0l-10 70q-19 -38 -58.5 -60.5t-89.5 -22.5q-15 0 -29 2t-27 9v-200h-124v375v112v235h124v-235v-86q0 -46 20.5 -72.5t70.5 -26.5q22 0 37.5 7.5t26.5 18.5q23 21 30.5 53t7.5 64v277h125v-520h-104z" />
            <glyph glyph-name="mu" unicode="&#x3bc;" horiz-adv-x="598"
                   d="M416 0l-10 70q-19 -38 -58.5 -60.5t-89.5 -22.5q-15 0 -29 2t-27 9v-200h-124v375v112v235h124v-235v-86q0 -46 20.5 -72.5t70.5 -26.5q22 0 37.5 7.5t26.5 18.5q23 21 30.5 53t7.5 64v277h125v-520h-104z" />
            <glyph glyph-name="partialdiff" unicode="&#x2202;"
                   d="M239 547l-153 -111v136l171 123h107v-586h139v-109h-403v109h139v438z" />
            <glyph glyph-name="summation" unicode="&#x2211;" horiz-adv-x="953"
                   d="M58 -99v248h84v-162h670v162h83v-248h-837z" />
            <glyph glyph-name="product" unicode="&#x220f;" horiz-adv-x="932"
                   d="M385 -293h-28l510 509v-27zM585 -293h-27l309 309v-27zM184 -293h-27l710 710v-28zM785 -293h-27l109 109v-28zM65 -212v28l802 801v-27zM65 -11v27l802 802v-28zM65 389v28l480 480h27zM65 189v27l681 681h27zM65 590v27l280 280h27zM65 790v28l79 79h28z" />
            <glyph glyph-name="pi" unicode="&#x3c0;" horiz-adv-x="636"
                   d="M581 1l-33 -5.5t-34 -2.5q-72 0 -107.5 37t-35.5 108v266h-121v-406h-124v406h-76v101h520v-101h-75v-248q0 -26 10.5 -38t36.5 -12q8 0 21 1t18 1v-107z" />
            <glyph glyph-name="integral" unicode="&#x222b;" horiz-adv-x="630"
                   d="M521 162l-382 382v-288h-99v453h457v-96h-289l382 -381z" />
            <glyph glyph-name="ordfeminine" unicode="&#xaa;" horiz-adv-x="475"
                   d="M298 480l-99 -8q-22 -2 -39 -14.5t-17 -36.5q0 -23 16 -36.5t39 -13.5q45 0 72.5 23.5t27.5 67.5v18zM425 309q-12 -5 -21 -8t-26 -3q-31 0 -48 16.5t-19 39.5q-14 -24 -46 -41.5t-74 -17.5q-35 0 -61.5 10.5t-44 27.5t-26.5 40t-9 47q0 28 10 50t28 37t42 24t52 11
l116 9v24q0 28 -12.5 45t-53.5 17q-68 0 -71 -56h-92q2 33 15.5 57.5t35.5 40.5t50.5 23.5t61.5 7.5q51 0 90.5 -18t56.5 -63q8 -19 9.5 -39.5t1.5 -40.5v-148q0 -14 5.5 -19t17.5 -5q6 0 8 1t4 1v-70z" />
            <glyph glyph-name="ordmasculine" unicode="&#xba;" horiz-adv-x="475"
                   d="M323 501q0 28 -4.5 55t-21.5 46q-10 11 -24.5 18t-34.5 7t-35 -7t-25 -18q-17 -19 -21 -46t-4 -55t4 -54.5t21 -45.5q10 -11 25 -18t35 -7t34.5 7t24.5 18q17 19 21.5 45.5t4.5 54.5zM419 501q0 -44 -10 -80t-33 -64q-20 -25 -56.5 -44t-81.5 -19t-82 19t-57 44
q-23 28 -33 64t-10 80t10.5 81.5t33.5 65.5q20 25 56.5 43t81.5 18t81 -18t56 -43q23 -28 33.5 -65.5t10.5 -81.5z" />
            <glyph glyph-name="ae" unicode="&#xe6;" horiz-adv-x="860"
                   d="M351 219h-60.5t-60.5 -2q-31 -2 -52 -17t-21 -47q0 -31 22 -47t51 -16q31 0 53.5 10t37.5 27.5t22.5 41t7.5 50.5zM695 311q0 26 -6.5 48.5t-19 39t-33 26t-49.5 9.5q-28 0 -48.5 -9.5t-34 -26.5t-20.5 -39t-8 -48h219zM477 219q1 -27 7.5 -51.5t20 -43t34.5 -29.5
t51 -11q76 0 101 70h121q-3 -24 -15.5 -49.5t-27.5 -43.5q-32 -39 -78.5 -56.5t-96.5 -17.5q-71 0 -121 29t-70 72q-10 -20 -26 -38t-38 -32t-51 -22.5t-67 -8.5q-34 0 -67.5 10t-60 30t-42.5 50.5t-16 71.5q0 39 14 67.5t38 48t56 30.5t68 14q18 2 42 2.5t46 0.5
q26 0 52 -1v45q0 42 -19.5 60.5t-61.5 18.5t-65.5 -17.5t-26.5 -53.5h-121q3 44 20 76t45.5 52.5t66.5 30.5t81 10q101 0 158 -61q25 28 64 44.5t96 16.5q58 0 106.5 -23t81.5 -72q29 -42 37 -92t8 -99v-28h-344z" />
            <glyph glyph-name="oslash" unicode="&#xf8;"
                   d="M313 421q-13 3 -28 3q-26 0 -46 -9.5t-33 -23.5q-23 -25 -30 -59.5t-7 -71.5q0 -29 4 -57.5t17 -51.5zM401 260q0 34 -6 66t-23 56l-127 -279q17 -7 40 -7q26 0 46 9.5t33 23.5q23 25 30 59.5t7 71.5zM528 260q0 -66 -16 -110.5t-45 -81.5q-27 -33 -74.5 -57t-107.5 -24
q-48 0 -87 15l-35 -77l-63 28l37 82q-10 8 -18.5 16t-15.5 17q-29 37 -45 81.5t-16 110.5t16 110.5t45 81.5q27 33 74.5 57t107.5 24q38 0 74 -11l29 62l63 -28l-29 -64q28 -19 45 -40q29 -37 45 -81.5t16 -110.5z" />
            <glyph glyph-name="questiondown" unicode="&#xbf;" horiz-adv-x="522"
                   d="M490 -8q0 -53 -19 -92.5t-51.5 -66.5t-76 -40.5t-93.5 -13.5q-49 0 -90 15t-70 41.5t-45.5 62.5t-16.5 77q0 53 22 91.5t57 67.5q20 17 37 30t30 28t20.5 34.5t7.5 47.5v28h124v-48.5t-5 -48.5q-7 -33 -20.5 -55.5t-31 -40t-36 -31.5t-36.5 -30q-14 -13 -26.5 -30.5
t-12.5 -41.5q0 -33 24.5 -58.5t72.5 -25.5t77 25.5t29 74.5h129zM195 364v140h139v-140h-139z" />
            <glyph glyph-name="exclamdown" unicode="&#xa1;" horiz-adv-x="332"
                   d="M83 -204v222l28 275h75l28 -275v-222h-131zM83 370v135h132v-135h-132z" />
            <glyph glyph-name="logicalnot" unicode="&#xac;" horiz-adv-x="665"
                   d="M463 84v167h-408v113h529l1 -280h-122z" />
            <glyph glyph-name="radical" unicode="&#x221a;" horiz-adv-x="697"
                   d="M594 728l-254 -736h-106l-189 528h133l109 -321l211 633h209v-104h-113z" />
            <glyph glyph-name="florin" unicode="&#x192;" horiz-adv-x="532"
                   d="M499 608q-11 2 -21.5 4t-21.5 2q-42 0 -63 -15.5t-31 -56.5q-5 -23 -9 -45.5t-8 -45.5h130v-112h-155l-62 -310q-14 -70 -58 -110.5t-117 -40.5q-42 0 -83 12v106q27 -6 55 -6q42 0 59 19t25 57l55 273h-94v112h117l24 119q14 69 61 112t119 43q20 0 39 -2.5t39 -5.5
v-109z" />
            <glyph glyph-name="approxequal" unicode="&#x2248;" horiz-adv-x="640"
                   d="M580 157q-18 -19 -36 -36t-38 -30.5t-42.5 -21.5t-49.5 -8q-29 0 -55 9t-49 20q-12 5 -23 10.5t-22 10.5q-21 9 -40 9q-29 0 -52 -18t-42 -38l-71 84q18 19 36 36t38 30.5t42.5 21.5t49.5 8q28 0 53.5 -8.5t48.5 -19.5q12 -5 23 -10.5t22 -9.5t21 -6.5t20 -2.5
q29 0 51 17.5t42 37.5zM580 377q-18 -19 -36 -36.5t-38 -31t-42.5 -21.5t-49.5 -8q-29 0 -55 9.5t-49 20.5q-12 5 -23 10l-22 10q-23 10 -40 10q-29 0 -52 -18.5t-42 -38.5l-71 84q18 19 36 36.5t38 31t42.5 21.5t49.5 8q28 0 53.5 -9t48.5 -20q12 -5 23 -10t22 -9t21 -6.5
t20 -2.5q29 0 51 17.5t42 37.5z" />
            <glyph glyph-name="Delta" unicode="&#x394;" horiz-adv-x="650"
                   d="M486 256v288l-382 -382l-69 70l382 381h-289v96h457v-453h-99z" />
            <glyph glyph-name="Delta" unicode="&#x2206;" horiz-adv-x="650"
                   d="M486 256v288l-382 -382l-69 70l382 381h-289v96h457v-453h-99z" />
            <glyph glyph-name="guillemotleft" unicode="&#xab;" horiz-adv-x="587"
                   d="M218 54l-173 244l173 247l73 -52l-114 -194l114 -194zM459 54l-173 244l173 247l73 -52l-114 -194l114 -194z" />
            <glyph glyph-name="guillemotright" unicode="&#xbb;" horiz-adv-x="587"
                   d="M128 54l-73 51l114 194l-114 194l73 52l173 -247zM369 54l-73 51l114 194l-114 194l73 52l173 -247z" />
            <glyph glyph-name="ellipsis" unicode="&#x2026;" horiz-adv-x="999"
                   d="M92 0v146h145v-146h-145zM427 0v146h145v-146h-145zM762 0v146h145v-146h-145z" />
            <glyph glyph-name="Agrave" unicode="&#xc0;" horiz-adv-x="639"
                   d="M317 551l-101 -299h202zM504 0l-46 136h-282l-46 -136h-130l249 709h141l249 -709h-135zM186 876l56 91l184 -138l-40 -65z" />
            <glyph glyph-name="Atilde" unicode="&#xc3;" horiz-adv-x="639"
                   d="M317 551l-101 -299h202zM504 0l-46 136h-282l-46 -136h-130l249 709h141l249 -709h-135zM480 828q-23 -22 -51 -39t-61 -17q-20 0 -36 6t-30.5 13t-27 13t-24.5 6q-18 0 -34 -9t-28 -22l-49 61q23 22 50.5 39t61.5 17q20 0 35.5 -6t29.5 -13.5t27 -14t26 -6.5q16 0 33 11
t28 22z" />
            <glyph glyph-name="Otilde" unicode="&#xd5;" horiz-adv-x="672"
                   d="M507 834q-22 -22 -50.5 -39t-61.5 -17q-20 0 -36 6t-30.5 13t-27 13t-24.5 6q-17 0 -33.5 -9.5t-27.5 -21.5l-50 61q23 22 50.5 39t61.5 17q20 0 35.5 -6t29.5 -13.5t27 -13.5t26 -6q16 0 33.5 10.5t28.5 21.5zM499 354q0 24 -1 52t-6 55.5t-15.5 52.5t-28.5 44
q-21 23 -51 35t-61 12t-61 -12t-51 -35q-18 -19 -28.5 -44t-15.5 -52.5t-6 -55.5t-1 -52t1 -52t6 -55t15.5 -52t28.5 -44q21 -23 51 -35t61 -12t61 12t51 35q18 19 28.5 44t15.5 52t6 55t1 52zM630 354q0 -43 -3 -82.5t-13 -75.5t-27.5 -68t-46.5 -61q-41 -41 -94 -60.5
t-110 -19.5t-110 19.5t-94 60.5q-29 29 -46.5 61t-27.5 68t-13 75.5t-3 82.5q0 44 3 83.5t13 75.5t27.5 68t46.5 61q41 41 94 60.5t110 19.5t110 -19.5t94 -60.5q29 -29 46.5 -61t27.5 -68t13 -75.5t3 -83.5z" />
            <glyph glyph-name="OE" unicode="&#x152;" horiz-adv-x="1030"
                   d="M483 355v54.5t-4.5 56t-14.5 53.5t-30 45q-19 19 -46 30t-60 11t-60 -11t-46 -30q-20 -19 -30 -45t-14.5 -53.5t-4.5 -56v-54.5v-54t4.5 -57t14.5 -53.5t30 -45.5q19 -19 46 -30t60 -11t60 11t46 30q20 20 30 45.5t14.5 53.5t4.5 57v54zM485 0v36q-28 -21 -70 -35
t-87 -14q-63 0 -115.5 21t-89.5 59q-28 29 -44 63t-24.5 71.5t-10.5 76.5t-2 77t2 77t10.5 76t24.5 71t44 63q37 38 89.5 59t115.5 21q45 0 88.5 -14.5t68.5 -34.5v36h505v-117h-376v-165h331v-116h-331v-194h376v-117h-505z" />
            <glyph glyph-name="oe" unicode="&#x153;" horiz-adv-x="904"
                   d="M393 259q0 37 -5.5 72.5t-28.5 60.5q-13 14 -32.5 23.5t-45.5 9.5t-45.5 -9.5t-32.5 -23.5q-23 -25 -28.5 -60.5t-5.5 -72.5t5.5 -72t28.5 -60q13 -14 32.5 -23.5t45.5 -9.5t45.5 9.5t32.5 23.5q23 25 28.5 60t5.5 72zM740 312q-2 60 -31 92q-13 14 -32 22t-46 8
q-29 0 -50.5 -11t-35.5 -29q-14 -17 -19.5 -36.5t-6.5 -45.5h221zM865 256v-13q0 -5 -0.5 -11t-0.5 -11h-344q-1 -30 9 -59t29 -47q14 -13 30.5 -22t42.5 -9q27 0 45 6.5t32 20.5q18 18 25 45h120q-2 -23 -15.5 -50.5t-28.5 -45.5q-33 -39 -78.5 -56t-95.5 -17
q-54 0 -93 17.5t-70 46.5q-3 3 -6.5 6t-6.5 7q-27 -32 -73.5 -54.5t-104.5 -22.5q-60 0 -107.5 24.5t-74.5 57.5q-29 37 -43 85t-14 105t14.5 106.5t43.5 86.5q27 33 74 57t107 24q58 0 104 -22t73 -54l9 9q29 30 70 48.5t95 18.5q58 0 107.5 -24t81.5 -73q29 -43 37.5 -87
t6.5 -93z" />
            <glyph glyph-name="endash" unicode="&#x2013;" horiz-adv-x="659"
                   d="M60 252v112h539v-112h-539z" />
            <glyph glyph-name="emdash" unicode="&#x2014;" horiz-adv-x="1149"
                   d="M60 252v111h1029v-111h-1029z" />
            <glyph glyph-name="quotedblleft" unicode="&#x201c;" horiz-adv-x="483"
                   d="M64 413v135q0 61 21 103t83 68l32 -58q-39 -19 -52 -41.5t-13 -60.5h72v-146h-143zM275 413v135q0 61 22 103t84 68l32 -58q-39 -19 -52 -41.5t-13 -60.5h71v-146h-144z" />
            <glyph glyph-name="quotedblright" unicode="&#x201d;" horiz-adv-x="463"
                   d="M198 574q0 -61 -22 -103t-84 -68l-32 58q39 19 52 41.5t13 60.5h-71v146h144v-135zM409 574q0 -61 -21 -103t-83 -68l-32 58q39 19 52 41.5t13 60.5h-72v146h143v-135z" />
            <glyph glyph-name="quoteleft" unicode="&#x2018;" horiz-adv-x="267"
                   d="M61 414v135q0 61 21.5 103t83.5 68l32 -58q-39 -19 -51.5 -41.5t-12.5 -60.5h71v-146h-144z" />
            <glyph glyph-name="quoteright" unicode="&#x2019;" horiz-adv-x="247"
                   d="M196 573q0 -61 -21.5 -103t-83.5 -68l-33 58q39 19 52 41.5t13 60.5h-72v147h145v-136z" />
            <glyph glyph-name="divide" unicode="&#xf7;" horiz-adv-x="648"
                   d="M257 30v139h137v-139h-137zM60 243v114h528v-114h-528zM257 436v139h137v-139h-137z" />
            <glyph glyph-name="lozenge" unicode="&#x25ca;"
                   d="M406 348q0 17 0.5 35.5t-0.5 38.5l-222 -260q13 -29 36 -47t65 -18q33 0 55 12.5t35 33t20 46.5t9 54t2 55.5v49.5zM385 536q-13 27 -36.5 45t-63.5 18q-49 0 -74.5 -26.5t-35.5 -65.5t-10.5 -82.5t-0.5 -76.5q0 -15 -0.5 -32t0.5 -36zM530 348q0 -43 -3 -85t-11.5 -81
t-25 -73t-43.5 -60t-66 -44t-96 -18t-96 18t-66 44t-43.5 60t-25 73t-11.5 81t-3 85t3 85t11.5 81t25 73t43.5 60t66 44t96 18t96 -18t66 -44t43.5 -60t25 -73t11.5 -81t3 -85z" />
            <glyph glyph-name="ydieresis" unicode="&#xff;" horiz-adv-x="530"
                   d="M111 601v121h117v-121h-117zM317 601v121h117v-121h-117zM301 -89q-10 -26 -23.5 -49.5t-32.5 -41.5t-44.5 -28.5t-59.5 -10.5q-31 0 -53.5 4t-42.5 9v104q12 -2 20.5 -4t16 -3t15.5 -1.5t18 -0.5q17 0 33.5 8t26.5 31l30 73l-205 519h137l136 -376l130 376h127z" />
            <glyph glyph-name="Ydieresis" unicode="&#x178;" horiz-adv-x="624"
                   d="M154 779v121h117v-121h-117zM360 779v121h117v-121h-117zM376 272v-272h-130v272l-246 437h140l175 -306l175 306h134z" />
            <glyph glyph-name="fraction" unicode="&#x2044;" horiz-adv-x="587"
                   d="M77 -20l-74 56l505 687l76 -53z" />
            <glyph glyph-name="Euro" unicode="&#x20ac;" horiz-adv-x="621"
                   d="M606 54q-42 -32 -88.5 -49.5t-111.5 -17.5q-63 0 -115.5 21t-92.5 61q-38 38 -57.5 80.5t-27.5 88.5h-78v73h70q-1 9 -1 18.5v18.5q0 8 0.5 17t0.5 17h-70v73h77q8 47 28 90.5t58 81.5q40 40 92.5 61t115.5 21q65 0 111.5 -17.5t88.5 -49.5l-47 -101q-38 29 -73 42
t-80 13q-36 0 -67 -12t-56 -38q-18 -20 -28.5 -42.5t-15.5 -48.5h281l-35 -73h-254v-35v-36h234l-35 -73h-191q11 -52 44 -88q25 -26 56 -38t67 -12q45 0 85.5 16.5t67.5 38.5z" />
            <glyph glyph-name="guilsinglleft" unicode="&#x2039;" horiz-adv-x="336"
                   d="M213 54l-173 244l173 247l73 -52l-114 -194l114 -194z" />
            <glyph glyph-name="guilsinglright" unicode="&#x203a;" horiz-adv-x="336"
                   d="M123 54l-73 51l114 194l-114 194l73 52l173 -247z" />
            <glyph glyph-name="daggerdbl" unicode="&#x2021;" horiz-adv-x="562"
                   d="M338 64v-189h-114v189h-184v105h184v246h-184v105h184v189h114v-189h184v-105h-184v-246h184v-105h-184z" />
            <glyph glyph-name="periodcentered" unicode="&#xb7;" horiz-adv-x="315"
                   d="M72 215v156h152v-156h-152z" />
            <glyph glyph-name="quotesinglbase" unicode="&#x201a;" horiz-adv-x="287"
                   d="M217 11q0 -31 -5 -57t-17 -48t-32.5 -39t-52.5 -30l-33 59q40 19 53 42.5t13 61.5h-73v150h147v-139z" />
            <glyph glyph-name="quotedblbase" unicode="&#x201e;" horiz-adv-x="504"
                   d="M217 11q0 -31 -5 -57t-17 -48t-32.5 -39t-52.5 -30l-33 59q40 19 53 42.5t13 61.5h-73v150h147v-139zM434 11q0 -31 -5 -57t-17 -48t-32.5 -39t-52.5 -30l-33 59q40 19 53 42.5t13 61.5h-73v150h147v-139z" />
            <glyph glyph-name="perthousand" unicode="&#x2030;" horiz-adv-x="1165"
                   d="M278 537q0 19 -2.5 37t-10 32.5t-21 23t-36.5 8.5q-22 0 -35.5 -8.5t-21 -23t-10 -32.5t-2.5 -37t2.5 -37.5t10 -32.5t21 -22.5t35.5 -8.5q23 0 36.5 8.5t21 22.5t10 32.5t2.5 37.5zM688 172q0 19 -2.5 37t-10 32t-21 22.5t-36.5 8.5q-22 0 -35.5 -8.5t-21 -22.5t-10 -32
t-2.5 -37t2.5 -37.5t10 -32.5t21 -22.5t35.5 -8.5q23 0 36.5 8.5t21 22.5t10 32.5t2.5 37.5zM1053 172q0 19 -2.5 37t-10 32t-21.5 22.5t-36 8.5t-35.5 -8.5t-21 -22.5t-10 -32t-2.5 -37t2.5 -37.5t10 -32.5t21 -22.5t35.5 -8.5t36 8.5t21.5 22.5t10 32.5t2.5 37.5zM372 537
q0 -31 -6.5 -60t-23.5 -54q-22 -32 -54.5 -50.5t-79.5 -18.5q-46 0 -78.5 18.5t-55.5 50.5q-17 25 -23 54t-6 60t6 60t23 54q23 32 55.5 50t78.5 18q47 0 79.5 -18t54.5 -50q17 -25 23.5 -54t6.5 -60zM195 -20l-74 56l505 687l76 -53zM782 172q0 -32 -6.5 -60.5t-23.5 -53.5
q-22 -32 -54.5 -50.5t-79.5 -18.5q-46 0 -78.5 18.5t-55.5 50.5q-17 25 -23 53.5t-6 60.5q0 31 6 60t23 54q23 32 55.5 50t78.5 18q47 0 79.5 -18t54.5 -50q17 -25 23.5 -54t6.5 -60zM1147 172q0 -32 -6.5 -60.5t-23.5 -53.5q-22 -32 -54.5 -50.5t-79.5 -18.5
q-46 0 -78.5 18.5t-55.5 50.5q-17 25 -23 53.5t-6 60.5q0 31 6 60t23 54q23 32 55.5 50t78.5 18q47 0 79.5 -18t54.5 -50q17 -25 23.5 -54t6.5 -60z" />
            <glyph glyph-name="Acircumflex" unicode="&#xc2;" horiz-adv-x="639"
                   d="M317 551l-101 -299h202zM504 0l-46 136h-282l-46 -136h-130l249 709h141l249 -709h-135zM415 775l-103 113l-105 -116l-64 58l138 145h61l134 -145z" />
            <glyph glyph-name="Ecircumflex" unicode="&#xca;" horiz-adv-x="628"
                   d="M437 775l-103 113l-105 -116l-64 58l138 145h61l134 -145zM83 0v709h505v-117h-376v-165h331v-116h-331v-194h376v-117h-505z" />
            <glyph glyph-name="Aacute" unicode="&#xc1;" horiz-adv-x="639"
                   d="M317 551l-101 -299h202zM504 0l-46 136h-282l-46 -136h-130l249 709h141l249 -709h-135zM228 764l-40 65l184 138l56 -91z" />
            <glyph glyph-name="Edieresis" unicode="&#xcb;" horiz-adv-x="628"
                   d="M83 0v709h505v-117h-376v-165h331v-116h-331v-194h376v-117h-505zM186 791v121h117v-121h-117zM392 791v121h117v-121h-117z" />
            <glyph glyph-name="Egrave" unicode="&#xc8;" horiz-adv-x="628"
                   d="M405 765l-200 112l56 91l184 -138zM83 0v709h505v-117h-376v-165h331v-116h-331v-194h376v-117h-505z" />
            <glyph glyph-name="Iacute" unicode="&#xcd;" horiz-adv-x="297"
                   d="M69 769l-40 65l184 138l56 -91zM83 0v709h131v-709h-131z" />
            <glyph glyph-name="Icircumflex" unicode="&#xce;" horiz-adv-x="297"
                   d="M253 775l-103 113l-105 -116l-64 58l138 145h61l134 -145zM83 0v709h131v-709h-131z" />
            <glyph glyph-name="Idieresis" unicode="&#xcf;" horiz-adv-x="297"
                   d="M-12 791v121h117v-121h-117zM194 791v121h117v-121h-117zM83 0v709h131v-709h-131z" />
            <glyph glyph-name="Igrave" unicode="&#xcc;" horiz-adv-x="297"
                   d="M225 770l-200 112l56 91l184 -138zM83 0v709h131v-709h-131z" />
            <glyph glyph-name="Oacute" unicode="&#xd3;" horiz-adv-x="672"
                   d="M499 354q0 24 -1 52t-6 55.5t-15.5 52.5t-28.5 44q-21 23 -51 35t-61 12t-61 -12t-51 -35q-18 -19 -28.5 -44t-15.5 -52.5t-6 -55.5t-1 -52t1 -52t6 -55t15.5 -52t28.5 -44q21 -23 51 -35t61 -12t61 12t51 35q18 19 28.5 44t15.5 52t6 55t1 52zM630 354q0 -43 -3 -82.5
t-13 -75.5t-27.5 -68t-46.5 -61q-41 -41 -94 -60.5t-110 -19.5t-110 19.5t-94 60.5q-29 29 -46.5 61t-27.5 68t-13 75.5t-3 82.5q0 44 3 83.5t13 75.5t27.5 68t46.5 61q41 41 94 60.5t110 19.5t110 -19.5t94 -60.5q29 -29 46.5 -61t27.5 -68t13 -75.5t3 -83.5zM245 764
l-40 65l184 138l56 -91z" />
            <glyph glyph-name="Ocircumflex" unicode="&#xd4;" horiz-adv-x="672"
                   d="M443 775l-103 113l-105 -116l-64 58l138 145h61l134 -145zM499 354q0 24 -1 52t-6 55.5t-15.5 52.5t-28.5 44q-21 23 -51 35t-61 12t-61 -12t-51 -35q-18 -19 -28.5 -44t-15.5 -52.5t-6 -55.5t-1 -52t1 -52t6 -55t15.5 -52t28.5 -44q21 -23 51 -35t61 -12t61 12t51 35
q18 19 28.5 44t15.5 52t6 55t1 52zM630 354q0 -43 -3 -82.5t-13 -75.5t-27.5 -68t-46.5 -61q-41 -41 -94 -60.5t-110 -19.5t-110 19.5t-94 60.5q-29 29 -46.5 61t-27.5 68t-13 75.5t-3 82.5q0 44 3 83.5t13 75.5t27.5 68t46.5 61q41 41 94 60.5t110 19.5t110 -19.5t94 -60.5
q29 -29 46.5 -61t27.5 -68t13 -75.5t3 -83.5z" />
            <glyph glyph-name="Ograve" unicode="&#xd2;" horiz-adv-x="672"
                   d="M499 354q0 24 -1 52t-6 55.5t-15.5 52.5t-28.5 44q-21 23 -51 35t-61 12t-61 -12t-51 -35q-18 -19 -28.5 -44t-15.5 -52.5t-6 -55.5t-1 -52t1 -52t6 -55t15.5 -52t28.5 -44q21 -23 51 -35t61 -12t61 12t51 35q18 19 28.5 44t15.5 52t6 55t1 52zM630 354q0 -43 -3 -82.5
t-13 -75.5t-27.5 -68t-46.5 -61q-41 -41 -94 -60.5t-110 -19.5t-110 19.5t-94 60.5q-29 29 -46.5 61t-27.5 68t-13 75.5t-3 82.5q0 44 3 83.5t13 75.5t27.5 68t46.5 61q41 41 94 60.5t110 19.5t110 -19.5t94 -60.5q29 -29 46.5 -61t27.5 -68t13 -75.5t3 -83.5zM411 765
l-200 112l56 91l184 -138z" />
            <glyph glyph-name="Uacute" unicode="&#xda;" horiz-adv-x="682"
                   d="M271 769l-40 65l184 138l56 -91zM619 272q0 -63 -17.5 -115.5t-52.5 -90t-87 -58.5t-121 -21t-121 21t-87 58.5t-52.5 90t-17.5 115.5v437h129v-435q0 -76 36 -123t113 -47t113 47t36 123v435h129v-437z" />
            <glyph glyph-name="Ucircumflex" unicode="&#xdb;" horiz-adv-x="682"
                   d="M448 775l-103 113l-105 -116l-64 58l138 145h61l134 -145zM619 272q0 -63 -17.5 -115.5t-52.5 -90t-87 -58.5t-121 -21t-121 21t-87 58.5t-52.5 90t-17.5 115.5v437h129v-435q0 -76 36 -123t113 -47t113 47t36 123v435h129v-437z" />
            <glyph glyph-name="Ugrave" unicode="&#xd9;" horiz-adv-x="682"
                   d="M408 770l-200 112l56 91l184 -138zM619 272q0 -63 -17.5 -115.5t-52.5 -90t-87 -58.5t-121 -21t-121 21t-87 58.5t-52.5 90t-17.5 115.5v437h129v-435q0 -76 36 -123t113 -47t113 47t36 123v435h129v-437z" />
            <glyph glyph-name="dotlessi" unicode="&#x131;" horiz-adv-x="286"
                   d="M80 0v520h127v-520h-127z" />
            <glyph glyph-name="circumflex" unicode="&#x2c6;" horiz-adv-x="365"
                   d="M288 574l-103 113l-105 -116l-64 58l138 145h61l134 -145z" />
            <glyph glyph-name="tilde" unicode="&#x2dc;" horiz-adv-x="382"
                   d="M369 672q-23 -23 -52 -41.5t-63 -18.5q-20 0 -37 6.5t-31 14t-27 14t-26 6.5q-18 0 -35 -10t-28 -23l-51 64q23 23 51.5 41.5t63.5 18.5q20 0 36.5 -6.5t30.5 -14.5t27 -14.5t27 -6.5q17 0 34.5 11.5t28.5 22.5z" />
            <glyph glyph-name="macron" unicode="&#xaf;" horiz-adv-x="305"
                   d="M5 631v100h300v-100h-300z" />
            <glyph glyph-name="breve" unicode="&#x2d8;" horiz-adv-x="350"
                   d="M346 767q-3 -39 -14.5 -71t-32.5 -55t-51.5 -36t-70.5 -13t-70 13t-51 36t-32.5 55t-14.5 71h94q5 -45 22.5 -64.5t51.5 -19.5t52 19.5t23 64.5h94z" />
            <glyph glyph-name="dotaccent" unicode="&#x2d9;" horiz-adv-x="265"
                   d="M68 592v128h133v-128h-133z" />
            <glyph glyph-name="ring" unicode="&#x2da;" horiz-adv-x="248"
                   d="M179 710q0 22 -15.5 37t-37.5 15t-37 -15t-15 -37t15 -37.5t37 -15.5t37.5 15.5t15.5 37.5zM248 710q0 -25 -9.5 -47.5t-26 -39t-38.5 -26t-48 -9.5q-25 0 -47.5 9.5t-39 26t-26 39t-9.5 47.5q0 26 9.5 48t26 38t39 25.5t47.5 9.5q26 0 48 -9.5t38.5 -25.5t26 -38
t9.5 -48z" />
            <glyph glyph-name="cedilla" unicode="&#xb8;" horiz-adv-x="198"
                   d="M113 -230l-104 49l83 150h97z" />
            <glyph glyph-name="hungarumlaut" unicode="&#x2dd;" horiz-adv-x="510"
                   d="M47 608l-42 65l185 144l59 -92zM302 608l-42 65l185 144l59 -92z" />
            <glyph glyph-name="ogonek" unicode="&#x2db;" horiz-adv-x="198"
                   d="M84 -237l-80 210h102l88 -158z" />
            <glyph glyph-name="caron" unicode="&#x2c7;" horiz-adv-x="358"
                   d="M208 776h-63l-136 148l62 56l105 -115l107 118l65 -59z" />
            <glyph glyph-name="Lslash" unicode="&#x141;" horiz-adv-x="566"
                   d="M99 0v274l-53 -33l-43 69l96 60v339h129v-258l109 69l44 -70l-153 -95v-233h329v-122h-458z" />
            <glyph glyph-name="lslash" unicode="&#x142;" horiz-adv-x="389"
                   d="M264 395v-240q0 -23 9 -36.5t41 -13.5q8 0 12 0.5t9 0.5v-105q-19 -4 -27.5 -5.5t-27.5 -1.5q-64 0 -103 33t-39 107v181l-45 -28l-43 69l88 56v311h126v-231l65 41l44 -69z" />
            <glyph glyph-name="Scaron" unicode="&#x160;" horiz-adv-x="632"
                   d="M142 920l65 59l107 -118l105 115l62 -56l-136 -148h-63zM599 211q0 -50 -16.5 -86t-42.5 -62q-41 -41 -99.5 -58.5t-124.5 -17.5q-57 0 -112.5 16.5t-99.5 56.5q-32 29 -53 71.5t-21 93.5h132q0 -26 10.5 -48.5t26.5 -38.5q23 -23 55.5 -30.5t63.5 -7.5q37 0 70 8.5
t53 29.5q12 13 20 27.5t8 40.5q0 39 -25.5 58.5t-58.5 25.5q-36 7 -79 10t-78 9q-37 6 -69.5 21t-57 39.5t-39 59t-14.5 78.5q0 42 17 77t45 63q35 35 90 55t118 20q57 0 109.5 -17.5t88.5 -51.5q32 -30 51.5 -68t20.5 -83h-132q-1 19 -9.5 37.5t-21.5 32.5q-17 18 -48 28
t-60 10q-30 0 -61.5 -8t-53.5 -31q-11 -12 -17.5 -26t-6.5 -34q0 -35 20 -53.5t52 -23.5q34 -5 76.5 -9t77.5 -9q40 -6 75.5 -21.5t62 -41t42 -61.5t15.5 -81z" />
            <glyph glyph-name="scaron" unicode="&#x161;" horiz-adv-x="521"
                   d="M112 706l59 53l96 -106l94 103l56 -50l-122 -134h-57zM482 161q0 -38 -12.5 -66t-32.5 -48q-32 -32 -78 -46t-100 -14q-50 0 -93 14.5t-75 45.5q-23 22 -39 53t-16 68h117q0 -17 8 -34t20 -27q15 -12 33.5 -17.5t45.5 -5.5q16 0 34.5 2.5t34.5 9.5t26.5 20t10.5 34
q0 23 -14 37t-38 18q-35 5 -72 8.5t-72 11.5q-27 6 -48.5 19t-37.5 31.5t-24.5 41t-8.5 47.5q0 40 15 68.5t38 48.5q29 25 69 38.5t89 13.5q47 0 90.5 -15t72.5 -46q21 -23 33.5 -50.5t12.5 -56.5h-119q0 15 -6 27t-15 22q-11 11 -29.5 17.5t-38.5 6.5q-14 0 -27 -1t-27 -7
q-17 -7 -28.5 -21t-11.5 -34q0 -28 19.5 -38.5t40.5 -13.5q18 -2 30 -3.5l24 -3t25 -3.5t32 -5q62 -10 102 -47.5t40 -99.5z" />
            <glyph glyph-name="Yacute" unicode="&#xdd;" horiz-adv-x="624"
                   d="M376 272v-272h-130v272l-246 437h140l175 -306l175 306h134zM233 764l-40 65l184 138l56 -91z" />
            <glyph glyph-name="yacute" unicode="&#xfd;" horiz-adv-x="530"
                   d="M213 563l-40 65l184 138l56 -91zM301 -89q-10 -26 -23.5 -49.5t-32.5 -41.5t-44.5 -28.5t-59.5 -10.5q-31 0 -53.5 4t-42.5 9v104q12 -2 20.5 -4t16 -3t15.5 -1.5t18 -0.5q17 0 33.5 8t26.5 31l30 73l-205 519h137l136 -376l130 376h127z" />
            <glyph glyph-name="Thorn" unicode="&#xde;" horiz-adv-x="594"
                   d="M451 363q0 51 -27.5 82.5t-92.5 31.5h-120v-233h120q66 0 93 31t27 88zM581 364q0 -108 -61.5 -170t-183.5 -62h-125v-132h-128v709h128v-119h125q122 0 183.5 -62t61.5 -164z" />
            <glyph glyph-name="thorn" unicode="&#xfe;" horiz-adv-x="592"
                   d="M424 260q0 36 -7.5 72t-27.5 62q-13 16 -31.5 26t-46.5 10q-36 0 -58.5 -15.5t-35 -40t-17 -55t-4.5 -59.5t4.5 -59t17 -54.5t35 -40t58.5 -15.5q28 0 46.5 10t31.5 26q20 26 27.5 61.5t7.5 71.5zM550 260q0 -62 -18 -118.5t-56 -96.5q-25 -26 -58.5 -41.5t-78.5 -15.5
q-39 0 -78 14.5t-59 45.5v-247h-124v459v462h124v-249q20 31 59 45.5t78 14.5q45 0 78.5 -15.5t58.5 -41.5q38 -40 56 -97t18 -119z" />
            <glyph glyph-name="Zcaron" unicode="&#x17d;" horiz-adv-x="615"
                   d="M118 913l65 59l107 -118l105 115l62 -56l-136 -148h-63zM29 0v127l391 465h-385v117h544v-127l-388 -465h393v-117h-555z" />
            <glyph glyph-name="zcaron" unicode="&#x17e;" horiz-adv-x="507"
                   d="M98 706l59 53l96 -106l94 103l56 -50l-122 -134h-57zM44 0v110l275 307h-273v103h420v-113l-272 -304h274v-103h-424z" />
            <glyph glyph-name="onehalf" unicode="&#xbd;" horiz-adv-x="916"
                   d="M164 344v256l-95 -67v103l105 73h83v-365h-93zM196 -20l-74 56l505 687l76 -53zM526 0v73l153 131q12 11 21 20.5t9 28.5q0 18 -12 29.5t-31 11.5q-28 0 -39 -16t-13 -39h-95q5 67 43 101.5t105 34.5q28 0 53 -8t44 -24t30.5 -38.5t11.5 -52.5q0 -38 -21 -64t-47 -48
l-64 -53h140v-87h-288z" />
            <glyph glyph-name="onequarter" unicode="&#xbc;" horiz-adv-x="883"
                   d="M169 344v256l-95 -67v103l105 73h83v-365h-93zM211 -20l-74 56l505 687l76 -53zM780 71v-71h-90v71h-179v95l116 208h96l-123 -222h90v82h90v-82h48v-81h-48z" />
            <glyph glyph-name="onesuperior" unicode="&#xb9;" horiz-adv-x="312"
                   d="M134 344v256l-95 -67v103l105 73h83v-365h-93z" />
            <glyph glyph-name="threequarters" unicode="&#xbe;" horiz-adv-x="920"
                   d="M363 450q0 -20 -6 -36t-15 -28q-21 -29 -57 -40t-76 -11q-34 0 -64 11.5t-50 32.5q-30 30 -34 81h88q2 -26 20.5 -37t41.5 -11q10 0 20.5 2t19.5 6.5t14.5 13t5.5 20.5q0 21 -14 30t-39 9h-27v73h27q19 0 32 7.5t13 28.5t-16.5 30t-34.5 9q-26 0 -42 -12t-19 -38h-87
q2 29 12 51t27 37q42 37 109 37q37 0 70.5 -13t53.5 -39q9 -12 14.5 -24.5t5.5 -32.5q0 -25 -14.5 -46t-37.5 -29q26 -8 42.5 -31.5t16.5 -50.5zM262 -20l-74 56l505 687l76 -53zM817 71v-71h-90v71h-179v95l116 208h96l-123 -222h90v82h90v-82h48v-81h-48z" />
            <glyph glyph-name="threesuperior" unicode="&#xb3;" horiz-adv-x="412"
                   d="M357 450q0 -20 -6 -36t-15 -28q-21 -29 -57 -40t-76 -11q-34 0 -64 11.5t-50 32.5q-30 30 -34 81h88q2 -26 20.5 -37t41.5 -11q10 0 20.5 2t19.5 6.5t14.5 13t5.5 20.5q0 21 -14 30t-39 9h-27v73h27q19 0 32 7.5t13 28.5t-16.5 30t-34.5 9q-26 0 -42 -12t-19 -38h-87
q2 29 12 51t27 37q42 37 109 37q37 0 70.5 -13t53.5 -39q9 -12 14.5 -24.5t5.5 -32.5q0 -25 -14.5 -46t-37.5 -29q26 -8 42.5 -31.5t16.5 -50.5z" />
            <glyph glyph-name="twosuperior" unicode="&#xb2;" horiz-adv-x="405"
                   d="M62 341v73l153 131q12 11 21 20.5t9 28.5q0 18 -12 29.5t-31 11.5q-28 0 -39 -16t-13 -39h-95q5 67 43 101.5t105 34.5q28 0 53 -8t44 -24t30.5 -38.5t11.5 -52.5q0 -38 -21 -64t-47 -48l-64 -53h140v-87h-288z" />
            <glyph glyph-name="brokenbar" unicode="&#xa6;" horiz-adv-x="289"
                   d="M83 -50v319h123v-319h-123zM83 440v319h123v-319h-123z" />
            <glyph glyph-name="minus" unicode="&#x2212;" horiz-adv-x="659"
                   d="M60 252v112h539v-112h-539z" />
            <glyph glyph-name="multiply" unicode="&#xd7;" horiz-adv-x="687"
                   d="M343 225l-208 -208l-72 72l208 208l-208 208l72 72l208 -207l208 207l73 -72l-208 -208l208 -208l-73 -72z" />
            <glyph glyph-name="Omega" unicode="&#x3a9;" horiz-adv-x="838"
                   d="M493 408q0 26 -14.5 39t-39.5 13h-52v-106h52q54 0 54 54zM590 408q0 -72 -41 -107t-110 -35h-51v-104h-100v386h151q32 0 59.5 -9.5t48 -27.5t32 -44t11.5 -59zM695 354q0 61 -20 112.5t-56.5 89t-87 59t-112.5 21.5q-61 0 -112 -21.5t-87 -59t-56 -89t-20 -112.5
t20 -112.5t56 -89t86.5 -58.5t112.5 -21q61 0 112 21.5t87.5 59t56.5 89t20 111.5zM788 354q0 -81 -27.5 -148t-76.5 -116t-117 -76t-148 -27q-81 0 -148.5 27t-116.5 76t-76.5 116t-27.5 148q0 80 28 147.5t77 116.5t117 76.5t147 27.5q80 0 147.5 -27.5t116.5 -77
t77 -116.5t28 -147z" />
            <glyph glyph-name="Omega" unicode="&#x2126;" horiz-adv-x="838"
                   d="M493 408q0 26 -14.5 39t-39.5 13h-52v-106h52q54 0 54 54zM590 408q0 -72 -41 -107t-110 -35h-51v-104h-100v386h151q32 0 59.5 -9.5t48 -27.5t32 -44t11.5 -59zM695 354q0 61 -20 112.5t-56.5 89t-87 59t-112.5 21.5q-61 0 -112 -21.5t-87 -59t-56 -89t-20 -112.5
t20 -112.5t56 -89t86.5 -58.5t112.5 -21q61 0 112 21.5t87.5 59t56.5 89t20 111.5zM788 354q0 -81 -27.5 -148t-76.5 -116t-117 -76t-148 -27q-81 0 -148.5 27t-116.5 76t-76.5 116t-27.5 148q0 80 28 147.5t77 116.5t117 76.5t147 27.5q80 0 147.5 -27.5t116.5 -77
t77 -116.5t28 -147z" />
            <glyph glyph-name="apple" horiz-adv-x="588"
                   d="M522 364q0 34 -21 55t-55 21h-79v79q0 34 -21.5 55.5t-55.5 21.5t-55 -21.5t-21 -55.5v-232h232q34 0 55 21.5t21 55.5zM539 364q0 -41 -26 -67.5t-67 -26.5h-72q17 -23 17 -54q0 -41 -26 -67t-67 -26h-249v248q0 41 26 67.5t67 26.5q30 0 55 -17v71q0 41 26 67.5
t67 26.5t67 -26.5t26 -67.5v-62h63q41 0 67 -26.5t26 -66.5z" />
            <glyph glyph-name="currency" unicode="&#xa4;" horiz-adv-x="571"
                   d="M410 254q0 27 -8.5 50t-24.5 40t-38.5 26.5t-51.5 9.5q-63 0 -94 -35t-31 -91q0 -25 8.5 -48t24.5 -40.5t39 -28t53 -10.5q60 0 91.5 36t31.5 91zM478 -20l-70 76q-30 -17 -59.5 -25t-61.5 -8t-62 8t-61 25l-69 -76l-87 84l79 67q-36 63 -36 123t36 123l-79 63l88 87
l67 -75q31 17 61.5 24.5t62.5 7.5t61 -7.5t60 -24.5l69 75l87 -87l-78 -63q36 -63 36 -123q0 -61 -36 -123l78 -67z" />
            <glyph glyph-name="eth" unicode="&#xf0;" horiz-adv-x="562"
                   d="M393 259q0 37 -5.5 72.5t-28.5 60.5q-13 14 -32.5 23.5t-45.5 9.5t-45.5 -9.5t-32.5 -23.5q-23 -25 -28.5 -60.5t-5.5 -72.5t5.5 -72t28.5 -60q13 -14 32.5 -23.5t45.5 -9.5t45.5 9.5t32.5 23.5q23 25 28.5 60t5.5 72zM520 259q0 -57 -14 -105t-43 -85
q-27 -33 -74.5 -57.5t-107.5 -24.5t-107.5 24.5t-74.5 57.5q-29 37 -43 85t-14 105t14.5 106.5t43.5 86.5q27 33 74 57t107 24h6l-30 50h-110v67h71l-41 72h125l42 -72h96v-67h-56l91 -149q23 -38 34 -82.5t11 -92.5z" />
            <glyph glyph-name="Eth" unicode="&#xd0;" horiz-adv-x="684"
                   d="M510 355q0 24 -1 51t-6 53.5t-15 50.5t-29 43q-18 18 -43.5 29t-56.5 11h-147v-183h131v-84h-131v-210h147q31 0 56.5 11t43.5 29q19 19 29 43t15 50.5t6 54t1 51.5zM641 355q0 -37 -2.5 -74.5t-11.5 -73.5t-25.5 -69.5t-43.5 -61.5q-35 -37 -86.5 -56.5t-112.5 -19.5
h-276v326h-63v84h63v299h276q61 0 112.5 -19.5t86.5 -56.5q27 -28 43.5 -61t25.5 -69t11.5 -73.5t2.5 -74.5z" />
        </font>
</defs>
</svg>
